<svg width="124" height="106" viewBox="0 0 124 106" fill="none" xmlns="http://www.w3.org/2000/svg">
<g clip-path="url(#clip0_2_536)">
<path opacity="0.2" d="M55.19 26.188C59.621 9.95004 76.361 0.152039 112.81 3.89393e-05C113.391 -0.00231905 113.966 0.102434 114.509 0.309039C115.041 0.511355 115.53 0.813805 115.949 1.20004C116.361 1.58304 116.687 2.03704 116.909 2.53704C117.131 3.03704 117.244 3.57304 117.242 4.11404V76.65C117.242 77.74 116.775 78.787 115.944 79.558C115.113 80.33 113.985 80.763 112.81 80.763C77.35 80.763 63.651 89.66 55.188 99.478V26.188H55.19Z" fill="#46B1FF"/>
<path d="M62 31.6522V104M62 31.6522C66.286 15.7862 82.472 7.68416 117.714 7.53616C118.278 7.53416 118.836 7.63616 119.357 7.83816C119.878 8.03916 120.351 8.33516 120.749 8.70916C121.148 9.08316 121.463 9.52716 121.678 10.0152C121.893 10.5042 122.002 11.0272 122 11.5552V83.9032C121.997 84.4378 121.884 84.966 121.668 85.4551C121.452 85.9441 121.138 86.3836 120.745 86.7462C119.92 87.5081 118.837 87.9287 117.714 87.9232C83.429 87.9232 70.183 94.4062 62 104C53.865 94.4542 40.571 87.9232 6.28602 87.9232C3.63902 87.9232 2.00002 85.9002 2.00002 83.4192V11.5562C1.99842 11.026 2.10812 10.5013 2.32202 10.0162C2.53702 9.52616 2.85202 9.08316 3.25102 8.70916C3.65485 8.33247 4.12746 8.03709 4.64302 7.83916C5.16708 7.63688 5.72427 7.53412 6.28602 7.53616C41.528 7.68516 57.714 15.7862 62 31.6522V31.6522Z" stroke="#425D8D" stroke-width="4" stroke-linecap="round" stroke-linejoin="round"/>
</g>
<defs>
<clipPath id="clip0_2_536">
<rect width="124" height="106" fill="white"/>
</clipPath>
</defs>
</svg>
