<svg width="28" height="27" viewBox="0 0 28 27" fill="none" xmlns="http://www.w3.org/2000/svg">
<path d="M0 8.387C0 15.43 7.754 22.097 14.216 26.5C16.155 25.242 18.094 23.733 19.903 22.223C11.243 15.18 2.843 8.764 0 6.5V8.387Z" fill="#2E4BB1"/>
<path d="M27.864 11.705C21.484 6.885 17.708 4.355 13.541 2.066C12.37 1.464 10.156 0.5 7.682 0.5C5.338 0.5 3.255 1.223 1.822 2.548C0.879972 3.40765 0.240899 4.54865 0 5.801C3.255 7.97 12.24 13.873 21.224 20.5C24.218 17.85 26.692 14.837 27.864 11.705Z" fill="#E61C23"/>
<path d="M25.863 2.462C24.495 1.192 22.632 0.5 20.395 0.5C18.034 0.5 16.295 1.192 14.927 1.885C17.288 3.154 22.521 5.808 27.864 9.5C27.988 9.038 27.988 8.462 27.988 8C28.113 5.692 27.229 3.73 25.863 2.462Z" fill="#FDB913"/>
</svg>
