<svg width="50" height="21" viewBox="0 0 50 21" fill="none" xmlns="http://www.w3.org/2000/svg">
<path d="M0 0.5V20.5H50V0.5H0ZM11.239 18.527L7.825 7.393H7.785L5.518 18.527H1.417L4.884 2.433H10.321L13.653 13.593H13.707L16.001 2.433H20.102L16.65 18.54H11.24V18.527H11.239ZM27.819 18.527L29.277 11.633H24.137L22.693 18.527H18.335L21.708 2.42H26.079L24.798 8.58H29.951L31.233 2.42H35.604L32.218 18.527H27.82H27.819ZM47.087 6.073C45.9653 5.56395 44.7435 5.31345 43.512 5.34C41.785 5.34 40.382 5.593 40.382 6.887C40.382 9.167 46.709 8.313 46.709 13.207C46.709 17.66 42.527 18.807 38.749 18.807C37.0322 18.7664 35.3294 18.4881 33.689 17.98L34.7 14.7C35.564 15.26 37.29 15.62 38.708 15.62C40.124 15.62 42.188 15.367 42.188 13.7C42.188 11.113 35.861 12.087 35.861 7.54C35.861 3.393 39.544 2.14 43.119 2.14C45.143 2.14 47.019 2.353 48.111 2.86L47.086 6.073H47.087Z" fill="#005EB8"/>
</svg>
