<svg width="160" height="160" viewBox="0 0 160 160" fill="none" xmlns="http://www.w3.org/2000/svg">
<path opacity="0.2" d="M148.1 23.001H29.9C24.433 23.001 20 27.445 20 32.927V97.075C20 102.557 24.433 107.001 29.9 107.001H148.1C153.567 107.001 158 102.557 158 97.075V32.927C158 27.445 153.567 23.001 148.1 23.001V23.001Z" fill="#46B1FF"/>
<path d="M139.956 30.001H20.044C14.497 30.001 10 34.498 10 40.045V104.957C10 110.504 14.497 115.001 20.044 115.001H139.956C145.503 115.001 150 110.504 150 104.957V40.045C150 34.498 145.503 30 139.956 30V30.001Z" stroke="#425D8D" stroke-width="4" stroke-linejoin="round"/>
<path d="M40 130.001H120" stroke="#425D8D" stroke-width="4" stroke-miterlimit="10" stroke-linecap="round"/>
</svg>
