<svg width="82" height="28" viewBox="0 0 82 28" fill="none" xmlns="http://www.w3.org/2000/svg">
<g clip-path="url(#clip0_2_14)">
<path d="M78.1 16.555C77.717 17.585 76.76 18.157 75.58 18.157C75.1585 18.1645 74.7397 18.0879 74.3482 17.9318C73.9566 17.7757 73.6 17.5431 73.2993 17.2477C72.9986 16.9523 72.7597 16.5999 72.5967 16.2111C72.4336 15.8224 72.3497 15.4051 72.3497 14.9835C72.3497 14.5619 72.4336 14.1446 72.5967 13.7559C72.7597 13.3671 72.9986 13.0147 73.2993 12.7193C73.6 12.4239 73.9566 12.1913 74.3482 12.0352C74.7397 11.8791 75.1585 11.8025 75.58 11.81C76.76 11.81 77.687 12.314 78.1 13.413H81.337C80.801 10.597 78.459 8.789 75.579 8.789C74.7561 8.77421 73.9385 8.92352 73.1739 9.22821C72.4094 9.5329 71.7132 9.98686 71.126 10.5636C70.5388 11.1403 70.0724 11.8282 69.754 12.5872C69.4357 13.3462 69.2717 14.161 69.2717 14.984C69.2717 15.807 69.4357 16.6218 69.754 17.3808C70.0724 18.1398 70.5388 18.8277 71.126 19.4044C71.7132 19.9811 72.4094 20.4351 73.1739 20.7398C73.9385 21.0445 74.7561 21.1938 75.579 21.179C78.459 21.179 80.948 19.156 81.337 16.555H78.1ZM64.767 9.1H68.138V20.96H64.768V9.1H64.767ZM68.477 6.234C68.483 6.50497 68.4348 6.77441 68.3353 7.0265C68.2357 7.2786 68.0868 7.50827 67.8973 7.70203C67.7078 7.89579 67.4815 8.04975 67.2317 8.15486C66.9818 8.25996 66.7135 8.31411 66.4425 8.31411C66.1715 8.31411 65.9032 8.25996 65.6533 8.15486C65.4035 8.04975 65.1772 7.89579 64.9877 7.70203C64.7982 7.50827 64.6493 7.2786 64.5497 7.0265C64.4502 6.77441 64.402 6.50497 64.408 6.234C64.408 5.69428 64.6224 5.17667 65.004 4.79503C65.3857 4.4134 65.9033 4.199 66.443 4.199C66.9827 4.199 67.5003 4.4134 67.882 4.79503C68.2636 5.17667 68.478 5.69428 68.478 6.234H68.477ZM55.112 10.552C55.678 9.532 56.962 8.835 58.812 8.835C61.802 8.835 63.385 10.738 63.385 13.563V20.959H60.015V13.916C60.015 12.533 59.398 11.581 57.908 11.581C56.274 11.581 55.369 12.582 55.369 14.161V20.949H52V9.099H55.113V10.552H55.112Z" fill="#001A3A"/>
<path fill-rule="evenodd" clip-rule="evenodd" d="M44.711 18.157C45.1325 18.1645 45.5513 18.0881 45.9429 17.932C46.3345 17.7759 46.6911 17.5434 46.9918 17.248C47.2926 16.9527 47.5315 16.6003 47.6946 16.2116C47.8577 15.8229 47.9418 15.4056 47.9418 14.984C47.9419 14.5625 47.858 14.1451 47.695 13.7563C47.532 13.3676 47.2932 13.0152 46.9925 12.7197C46.6919 12.4242 46.3353 12.1916 45.9438 12.0354C45.5522 11.8792 45.1335 11.8026 44.712 11.81C43.8801 11.8248 43.0872 12.1656 42.5041 12.7592C41.921 13.3527 41.5943 14.1515 41.5943 14.9835C41.5943 15.8155 41.921 16.6143 42.5041 17.2079C43.0872 17.8014 43.8801 18.1422 44.712 18.157H44.711ZM44.711 21.178C45.5338 21.1928 46.3512 21.0435 47.1157 20.7389C47.8801 20.4342 48.5762 19.9803 49.1633 19.4037C49.7504 18.8271 50.2167 18.1393 50.535 17.3804C50.8534 16.6216 51.0173 15.8069 51.0173 14.984C51.0173 14.1611 50.8534 13.3464 50.535 12.5876C50.2167 11.8287 49.7504 11.1409 49.1633 10.5643C48.5762 9.98767 47.8801 9.53378 47.1157 9.22914C46.3512 8.9245 45.5338 8.77522 44.711 8.79C43.8843 8.76899 43.0618 8.91367 42.292 9.2155C41.5221 9.51733 40.8205 9.97022 40.2284 10.5475C39.6363 11.1247 39.1657 11.8146 38.8444 12.5766C38.5231 13.3385 38.3576 14.1571 38.3576 14.984C38.3576 15.8109 38.5231 16.6295 38.8444 17.3914C39.1657 18.1534 39.6363 18.8433 40.2284 19.4205C40.8205 19.9978 41.5221 20.4507 42.292 20.7525C43.0618 21.0543 43.8843 21.199 44.711 21.178Z" fill="#001A3A"/>
<path d="M33.96 9.1H37.33V20.96H33.96V9.1ZM37.67 6.234C37.67 6.77371 37.4556 7.29132 37.074 7.67296C36.6923 8.0546 36.1747 8.269 35.635 8.269C35.0953 8.269 34.5777 8.0546 34.196 7.67296C33.8144 7.29132 33.6 6.77371 33.6 6.234C33.6 5.69428 33.8144 5.17667 34.196 4.79504C34.5777 4.4134 35.0953 4.199 35.635 4.199C36.1747 4.199 36.6923 4.4134 37.074 4.79504C37.4556 5.17667 37.67 5.69428 37.67 6.234ZM3.36 14C3.36 8.124 8.124 3.36 14 3.36C16.366 3.36 18.55 4.13 20.317 5.437C20.548 4.89388 20.8961 4.40845 21.3364 4.01537C21.7767 3.62228 22.2983 3.33124 22.864 3.163C20.365 1.11357 17.2319 -0.00444726 14 -2.05428e-06C6.268 -2.05428e-06 0 6.268 0 14C0 21.732 6.268 28 14 28C21.732 28 28 21.732 28 14C28 12.382 27.725 10.825 27.218 9.376C26.8674 9.85127 26.4158 10.2429 25.8956 10.5227C25.3755 10.8024 24.7998 10.9634 24.21 10.994C24.49 11.946 24.64 12.954 24.64 14C24.64 19.876 19.876 24.64 14 24.64C8.124 24.64 3.36 19.876 3.36 14Z" fill="#001A3A"/>
<path d="M27.712 11.164C27.5873 10.5577 27.4223 9.96033 27.218 9.376C26.8674 9.85127 26.4158 10.2429 25.8956 10.5227C25.3755 10.8024 24.7998 10.9634 24.21 10.994C24.408 11.668 24.541 12.369 24.602 13.092C25.2289 13.0143 25.8314 12.8017 26.3683 12.4688C26.9052 12.136 27.3636 11.6909 27.712 11.164ZM14 20.125C15.6239 20.1231 17.1807 19.4772 18.329 18.329C19.4772 17.1807 20.1231 15.6239 20.125 14C20.1231 12.3761 19.4772 10.8193 18.329 9.67102C17.1807 8.52276 15.6239 7.87685 14 7.875C12.3761 7.87685 10.8193 8.52276 9.67102 9.67102C8.52276 10.8193 7.87685 12.3761 7.875 14C7.87764 15.6236 8.5238 17.18 9.67189 18.3281C10.82 19.4762 12.3764 20.1224 14 20.125ZM23.188 8.75C23.5902 8.75 23.9884 8.67079 24.36 8.51688C24.7315 8.36298 25.0691 8.13739 25.3535 7.85301C25.6379 7.56863 25.8635 7.23103 26.0174 6.85947C26.1713 6.48791 26.2505 6.08967 26.2505 5.6875C26.2505 5.28533 26.1713 4.88709 26.0174 4.51553C25.8635 4.14397 25.6379 3.80637 25.3535 3.52199C25.0691 3.23761 24.7315 3.01202 24.36 2.85812C23.9884 2.70421 23.5902 2.625 23.188 2.625C22.3758 2.625 21.5968 2.94766 21.0225 3.52199C20.4482 4.09632 20.1255 4.87527 20.1255 5.6875C20.1255 6.49973 20.4482 7.27868 21.0225 7.85301C21.5968 8.42734 22.3758 8.75 23.188 8.75Z" fill="#001A3A"/>
</g>
<defs>
<clipPath id="clip0_2_14">
<rect width="82" height="28" fill="white"/>
</clipPath>
</defs>
</svg>
