<svg width="80" height="80" viewBox="0 0 80 80" fill="none" xmlns="http://www.w3.org/2000/svg">
<path d="M64 15H40C32.8203 15 27 20.8203 27 28V52C27 59.1797 32.8203 65 40 65H64C71.1797 65 77 59.1797 77 52V28C77 20.8203 71.1797 15 64 15Z" stroke="#00C680" stroke-width="6"/>
<path opacity="0.5" d="M10.65 10.1941L51.556 35.7601C54.689 37.7181 54.689 42.2821 51.556 44.2401L10.65 69.8061L12.24 72.3501L10.65 69.8061C7.32 71.8871 3 69.4931 3 65.5661V14.4341C3 10.5071 7.32 8.11308 10.65 10.1941V10.1941Z" stroke="#00C680" stroke-width="6"/>
</svg>
