<svg width="80" height="80" viewBox="0 0 80 80" fill="none" xmlns="http://www.w3.org/2000/svg">
<path d="M64 3H44.333C37.1533 3 31.333 8.8203 31.333 16V35.667C31.333 42.8467 37.1533 48.667 44.333 48.667H64C71.1797 48.667 77 42.8467 77 35.667V16C77 8.8203 71.1797 3 64 3Z" stroke="#6356FF" stroke-width="6"/>
<path opacity="0.6" d="M46.5 20.5H16C8.8203 20.5 3 26.3203 3 33.5V64C3 71.1797 8.8203 77 16 77H46.5C53.6797 77 59.5 71.1797 59.5 64V33.5C59.5 26.3203 53.6797 20.5 46.5 20.5Z" stroke="#6356FF" stroke-width="6"/>
</svg>
