<svg width="133" height="101" viewBox="0 0 133 101" fill="none" xmlns="http://www.w3.org/2000/svg">
<g clip-path="url(#clip0_2_544)">
<g opacity="0.2">
<path opacity="0.2" d="M110.733 21.501C109.896 33.645 101.268 43.001 91.859 43.001C82.45 43.001 73.809 33.649 72.985 21.501C72.127 8.86698 80.525 0.000976562 91.859 0.000976562C103.192 0.000976562 111.591 9.09698 110.733 21.501ZM92 61.101C73.444 61.101 55.6 70.61 51.13 89.128C50.538 91.578 52.027 94.001 54.467 94.001H129.536C131.976 94.001 133.457 91.578 132.873 89.128C128.403 70.313 110.559 61.1 92 61.1V61.101Z" fill="#46B1FF"/>
</g>
<path d="M51.717 66.092C46.56 63.686 40.88 62.762 34.86 62.762C20.003 62.762 5.68797 70.282 2.10297 84.928C1.63097 86.866 2.82597 88.783 4.77997 88.783H36.86M103.734 26.501C102.896 38.645 94.268 48.001 84.859 48.001C75.451 48.001 66.809 38.649 65.985 26.501C65.127 13.867 73.525 5.00098 84.859 5.00098C96.192 5.00098 104.592 14.097 103.734 26.501V26.501ZM85 66.101C66.444 66.101 48.6 75.61 44.13 94.128C43.538 96.578 45.027 99.001 47.467 99.001H122.536C124.976 99.001 126.457 96.578 125.873 94.128C121.403 75.313 103.559 66.1 85 66.1V66.101ZM50.002 31.165C49.334 40.614 42.368 48.055 34.86 48.055C27.351 48.055 20.374 40.617 19.717 31.165C19.034 21.335 25.814 14.31 34.86 14.31C43.905 14.31 50.685 21.516 50.002 31.165V31.165Z" stroke="#425D8D" stroke-width="4" stroke-linecap="round" stroke-linejoin="round"/>
</g>
<defs>
<clipPath id="clip0_2_544">
<rect width="133" height="101" fill="white"/>
</clipPath>
</defs>
</svg>
