<svg width="68" height="68" viewBox="0 0 68 68" fill="none" xmlns="http://www.w3.org/2000/svg">
<path d="M62 63C62.2652 63 62.5196 62.8946 62.7071 62.7071C62.8946 62.5196 63 62.2652 63 62V53C63 52.7348 62.8946 52.4804 62.7071 52.2929C62.5196 52.1054 62.2652 52 62 52C61.7348 52 61.4804 52.1054 61.2929 52.2929C61.1054 52.4804 61 52.7348 61 53V61H53C52.7348 61 52.4804 61.1054 52.2929 61.2929C52.1054 61.4804 52 61.7348 52 62C52 62.2652 52.1054 62.5196 52.2929 62.7071C52.4804 62.8946 52.7348 63 53 63H62ZM46.707 45.293C46.5184 45.1108 46.2658 45.01 46.0036 45.0123C45.7414 45.0146 45.4906 45.1198 45.3052 45.3052C45.1198 45.4906 45.0146 45.7414 45.0123 46.0036C45.01 46.2658 45.1108 46.5184 45.293 46.707L46.707 45.293ZM62.707 61.293L46.707 45.293L45.293 46.707L61.293 62.707L62.707 61.293ZM6 5C5.73478 5 5.48043 5.10536 5.29289 5.29289C5.10536 5.48043 5 5.73478 5 6V15C5 15.2652 5.10536 15.5196 5.29289 15.7071C5.48043 15.8946 5.73478 16 6 16C6.26522 16 6.51957 15.8946 6.70711 15.7071C6.89464 15.5196 7 15.2652 7 15V7H15C15.2652 7 15.5196 6.89464 15.7071 6.70711C15.8946 6.51957 16 6.26522 16 6C16 5.73478 15.8946 5.48043 15.7071 5.29289C15.5196 5.10536 15.2652 5 15 5H6ZM21.293 22.707C21.4816 22.8892 21.7342 22.99 21.9964 22.9877C22.2586 22.9854 22.5094 22.8802 22.6948 22.6948C22.8802 22.5094 22.9854 22.2586 22.9877 21.9964C22.99 21.7342 22.8892 21.4816 22.707 21.293L21.293 22.707ZM5.293 6.707L21.293 22.707L22.707 21.293L6.707 5.293L5.293 6.707ZM63 6C63 5.73478 62.8946 5.48043 62.7071 5.29289C62.5196 5.10536 62.2652 5 62 5H53C52.7348 5 52.4804 5.10536 52.2929 5.29289C52.1054 5.48043 52 5.73478 52 6C52 6.26522 52.1054 6.51957 52.2929 6.70711C52.4804 6.89464 52.7348 7 53 7H61V15C61 15.2652 61.1054 15.5196 61.2929 15.7071C61.4804 15.8946 61.7348 16 62 16C62.2652 16 62.5196 15.8946 62.7071 15.7071C62.8946 15.5196 63 15.2652 63 15V6ZM45.293 21.293C45.1108 21.4816 45.01 21.7342 45.0123 21.9964C45.0146 22.2586 45.1198 22.5094 45.3052 22.6948C45.4906 22.8802 45.7414 22.9854 46.0036 22.9877C46.2658 22.99 46.5184 22.8892 46.707 22.707L45.293 21.293ZM61.293 5.293L45.293 21.293L46.707 22.707L62.707 6.707L61.293 5.293ZM5 62C5 62.2652 5.10536 62.5196 5.29289 62.7071C5.48043 62.8946 5.73478 63 6 63H15C15.2652 63 15.5196 62.8946 15.7071 62.7071C15.8946 62.5196 16 62.2652 16 62C16 61.7348 15.8946 61.4804 15.7071 61.2929C15.5196 61.1054 15.2652 61 15 61H7V53C7 52.7348 6.89464 52.4804 6.70711 52.2929C6.51957 52.1054 6.26522 52 6 52C5.73478 52 5.48043 52.1054 5.29289 52.2929C5.10536 52.4804 5 52.7348 5 53V62ZM22.707 46.707C22.8025 46.6148 22.8787 46.5044 22.9311 46.3824C22.9835 46.2604 23.0111 46.1292 23.0123 45.9964C23.0134 45.8636 22.9881 45.7319 22.9378 45.609C22.8875 45.4861 22.8133 45.3745 22.7194 45.2806C22.6255 45.1867 22.5138 45.1125 22.391 45.0622C22.2681 45.0119 22.1364 44.9866 22.0036 44.9878C21.8708 44.9889 21.7396 45.0165 21.6176 45.0689C21.4956 45.1213 21.3852 45.1975 21.293 45.293L22.707 46.707ZM6.707 62.707L22.707 46.707L21.293 45.293L5.293 61.293L6.707 62.707Z" fill="#5174B0"/>
<path d="M34 45.25C40.2132 45.25 45.25 40.2132 45.25 34C45.25 27.7868 40.2132 22.75 34 22.75C27.7868 22.75 22.75 27.7868 22.75 34C22.75 40.2132 27.7868 45.25 34 45.25Z" stroke="#77C6FF" stroke-width="2" stroke-linejoin="round"/>
<path d="M44.182 55.819L42.485 57.515C37.799 62.201 30.201 62.201 25.515 57.515L23.818 55.819M55.818 23.819L57.515 25.515C62.201 30.201 62.201 37.8 57.515 42.485L55.818 44.182V23.819ZM12.182 44.182L10.485 42.485C5.79902 37.799 5.79902 30.201 10.485 25.515L12.182 23.818V44.182ZM23.818 12.182L25.515 10.486C30.201 5.79895 37.799 5.79895 42.485 10.486L44.182 12.182H23.818Z" stroke="#7CABFF" stroke-width="2" stroke-linecap="round" stroke-linejoin="round"/>
</svg>
