<svg width="28" height="34" viewBox="0 0 28 34" fill="none" xmlns="http://www.w3.org/2000/svg">
<path d="M0.103029 24.253V29.69C0.103029 32.723 1.91603 33.232 3.42203 33.232C5.66203 33.232 6.68903 31.724 6.68903 29.654V24.254H5.20103V29.847C5.20103 30.549 4.97803 31.864 3.40403 31.847C1.98403 31.829 1.71103 30.479 1.71103 29.602V24.253H0.103029ZM12.883 24.622C12.883 24.622 11.942 24.131 10.863 24.131C9.52903 24.131 7.83603 24.832 7.83603 26.761C7.83603 28.094 8.79403 28.725 9.44403 29.058C9.78603 29.234 10.214 29.427 10.556 29.619C10.727 29.725 11.446 29.97 11.446 30.759C11.446 31.601 10.539 31.899 10.146 31.899C8.70803 31.899 7.71603 31.233 7.71603 31.233L7.87003 32.933C7.87003 32.933 8.45203 33.249 10.23 33.249C11.907 33.249 13.122 32.127 13.122 30.601C13.122 29.427 12.335 28.725 11.668 28.391C11.138 28.129 10.83 27.989 10.385 27.761C9.92303 27.533 9.46103 27.164 9.46103 26.568C9.46103 25.937 10.026 25.481 10.864 25.481C12.096 25.481 12.592 26.042 12.882 26.235V24.622H12.883ZM23.028 30.321L24.208 26.884L25.27 30.321H23.028ZM15.928 30.321L17.108 26.884L18.152 30.321H15.928ZM24.945 24.253H23.165L23.456 24.99L20.701 32.548L17.861 24.253H16.065L16.355 24.99L13.413 33.04H15.021L15.535 31.514H18.58L19.093 33.039H22.122L22.635 31.514H25.68L26.193 33.039H27.973L24.945 24.253ZM0.0170288 14.38L0.0860288 17.133C0.0860288 17.133 0.736029 16.643 1.47203 16.643C2.20703 16.643 3.04503 17.186 3.04503 17.186L9.63203 21.131L10.196 18.641L3.04603 14.345C3.04603 14.345 2.22403 13.802 1.47203 13.802C0.753029 13.802 0.0170288 14.38 0.0170288 14.38Z" fill="#001A3A"/>
<path d="M0.0170288 10.7841L0.0860288 13.5371C0.0860288 13.5371 0.736029 13.0471 1.47203 13.0471C2.20703 13.0471 3.04503 13.5901 3.04503 13.5901L10.333 17.9561L10.881 15.4661L3.04503 10.7491C3.04503 10.7491 2.22503 10.2061 1.47203 10.2061C0.753029 10.2231 0.0170288 10.7841 0.0170288 10.7841Z" fill="#001A3A"/>
<path d="M0.0170288 7.18993L0.0860288 9.94293C0.0860288 9.94293 0.736029 9.45193 1.47203 9.45193C2.20703 9.45193 3.04503 9.99493 3.04503 9.99493L11.052 14.7999L11.599 12.3099L3.04503 7.17193C3.04503 7.17193 2.22503 6.62793 1.47203 6.62793C0.753029 6.62793 0.0170288 7.18993 0.0170288 7.18993Z" fill="#001A3A"/>
<path d="M13.738 2.823L14.474 6.068L24.5 12.083C24.5 12.083 25.287 12.627 26.057 12.627C26.827 12.627 27.527 12.065 27.527 12.065L27.459 9.295C27.459 9.295 26.826 9.785 26.057 9.785C25.287 9.785 24.5 9.242 24.5 9.242L16.75 4.595L16.22 2.508C16.22 2.42 16.288 2.385 16.322 2.368L17.639 1.947C17.81 1.947 17.913 2.104 17.913 2.227L17.981 2.367C18.033 2.385 18.221 2.297 18.238 2.28V1.49C18.238 0.947 17.81 0.456 17.246 0.456H15.928C15.928 0.456 15.74 0 15.175 0H12.678C12.028 0 11.856 0.631 11.856 0.631L10.128 7.821L3.045 3.578C3.045 3.578 2.275 3.034 1.471 3.034C0.667 3.034 0 3.595 0 3.595L0.068 6.348C0.068 6.348 0.668 5.858 1.454 5.858C2.258 5.858 3.028 6.401 3.028 6.401L11.737 11.627L13.738 2.823Z" fill="#001A3A"/>
<path d="M14.68 6.94507L15.415 10.2061L24.516 15.6601C24.516 15.6601 25.337 16.2031 26.073 16.2031C26.826 16.2031 27.544 15.6431 27.544 15.6431L27.476 12.8891C27.476 12.8891 26.894 13.3801 26.09 13.3801C25.269 13.3801 24.533 12.8371 24.533 12.8371L14.68 6.94507Z" fill="#001A3A"/>
<path d="M15.603 11.1001L16.339 14.3631L24.499 19.2551C24.499 19.2551 25.32 19.7991 26.056 19.7991C26.808 19.7991 27.527 19.2371 27.527 19.2371L27.459 16.4841C27.459 16.4841 26.877 16.9751 26.073 16.9751C25.252 16.9751 24.516 16.4321 24.516 16.4321L15.603 11.1001Z" fill="#001A3A"/>
<path d="M16.544 15.2571L17.28 18.5011L24.516 22.8321C24.516 22.8321 25.337 23.3761 26.073 23.3761C26.826 23.3761 27.544 22.8151 27.544 22.8151L27.476 20.0621C27.476 20.0621 26.894 20.5521 26.09 20.5521C25.269 20.5521 24.533 20.0091 24.533 20.0091L16.544 15.2571Z" fill="#001A3A"/>
</svg>
