<svg width="66" height="66" viewBox="0 0 66 66" fill="none" xmlns="http://www.w3.org/2000/svg">
<path d="M1 20.693H5.923M33 5.923V1V5.923ZM45.308 5.923V1V5.923ZM20.692 5.923V1V5.923ZM33 65V60.077V65ZM45.308 65V60.077V65ZM20.692 65V60.077V65ZM60.077 33H65H60.077ZM60.077 45.308H65H60.077ZM60.077 20.693H65H60.077ZM1 33H5.923H1ZM1 45.308H5.923H1Z" stroke="#7CABFF" stroke-width="2" stroke-linecap="round" stroke-linejoin="round"/>
<path d="M52.692 5.9231H13.308C11.3494 5.9231 9.47098 6.70116 8.08602 8.08611C6.70106 9.47107 5.923 11.3495 5.923 13.3081V52.6931C5.92327 54.6515 6.70145 56.5297 8.08637 57.9144C9.4713 59.2992 11.3496 60.0771 13.308 60.0771H52.692C54.6505 60.0771 56.5287 59.2992 57.9136 57.9144C59.2986 56.5297 60.0767 54.6515 60.077 52.6931V13.3081C60.077 11.3495 59.2989 9.47107 57.914 8.08611C56.529 6.70116 54.6506 5.9231 52.692 5.9231V5.9231Z" stroke="#5174B0" stroke-width="2" stroke-linejoin="round"/>
<path d="M47.77 15.77H18.23C17.5776 15.7705 16.952 16.03 16.4908 16.4915C16.0295 16.9529 15.7703 17.5786 15.77 18.231V47.77C15.77 48.4226 16.0291 49.0486 16.4904 49.5102C16.9517 49.9719 17.5774 50.2315 18.23 50.232H47.77C48.4226 50.2315 49.0483 49.9719 49.5096 49.5102C49.9709 49.0486 50.23 48.4226 50.23 47.77V18.232C50.23 17.5794 49.9709 16.9535 49.5096 16.4918C49.0483 16.0302 48.4226 15.7705 47.77 15.77V15.77Z" stroke="#77C6FF" stroke-width="2" stroke-linejoin="round"/>
</svg>
