<svg width="34" height="34" viewBox="0 0 34 34" fill="none" xmlns="http://www.w3.org/2000/svg">
<path fill-rule="evenodd" clip-rule="evenodd" d="M0 0H34V34H0V0ZM10.144 21.98C10.144 22.525 10.699 22.757 11.1 22.757C11.365 22.757 11.615 22.665 11.712 22.597C11.509 22.378 10.545 21.296 10.545 21.296C10.353 21.428 10.145 21.661 10.145 21.98H10.144ZM13.607 21.475C13.607 21.814 13.577 22.25 13.373 22.607L14.49 23.851H12.848L12.588 23.569C12.218 23.815 11.693 23.969 11.136 23.969C9.512 23.969 8.592 23.194 8.592 22.022C8.592 21.18 9.136 20.655 9.66 20.41C9.266 20.046 9.18 19.64 9.18 19.38C9.18 18.452 9.932 17.837 11.103 17.837C12.183 17.837 12.957 18.409 12.957 19.343V19.713H11.552V19.429C11.552 19.193 11.407 19.024 11.136 19.024C10.884 19.024 10.716 19.176 10.716 19.403C10.716 19.597 10.802 19.723 10.934 19.887L12.303 21.417V20.555H13.607V21.475ZM17.668 20.843C18.108 20.843 18.35 20.55 18.35 20.144C18.35 19.705 18.116 19.43 17.668 19.43H16.775V20.843H17.668ZM17.306 22.303H16.775V23.851H14.93V17.955H17.878C19.378 17.955 20.195 18.848 20.195 20.135C20.195 20.98 19.816 21.627 19.184 21.99L20.354 23.851H18.207L17.307 22.303H17.306ZM4.386 17.955H2.54V23.851H4.386V21.738H5.902V23.851H7.747V17.955H5.902V20.052H4.386V17.955ZM5.524 30.05C5.817 30.05 5.987 29.832 5.987 29.548C5.987 29.285 5.807 29.06 5.514 29.06H4.289V30.05H5.524ZM5.158 27.808C5.448 27.808 5.604 27.598 5.604 27.316C5.604 27.061 5.43 26.861 5.158 26.861H4.303V27.808H5.158ZM2.548 25.507H5.605C6.709 25.507 7.357 26.147 7.357 27.031C7.357 27.629 7.07 28.119 6.584 28.354C7.29 28.513 7.72 28.993 7.72 29.728C7.72 30.722 6.996 31.404 5.648 31.404H2.548V25.507ZM10.321 25.507H8.478V31.404H12.715V29.872H10.32V25.507H10.321ZM16.981 28.936V27.976C16.981 27.293 16.636 26.923 16.011 26.923C15.388 26.923 15.042 27.293 15.042 27.976V28.936C15.042 29.617 15.388 29.989 16.011 29.989C16.636 29.989 16.981 29.617 16.981 28.936ZM13.197 28.826V28.086C13.197 26.485 14.167 25.389 16.011 25.389C17.857 25.389 18.826 26.485 18.826 28.086V28.826C18.826 30.428 17.856 31.522 16.011 31.522C14.167 31.522 13.197 30.429 13.197 28.827V28.826ZM23.161 29.114C23.127 29.544 22.891 29.989 22.243 29.989C21.611 29.989 21.309 29.576 21.309 28.927V27.985C21.309 27.336 21.611 26.923 22.243 26.923C22.891 26.923 23.127 27.369 23.161 27.8H24.905C24.864 26.468 23.937 25.389 22.277 25.389C20.373 25.389 19.465 26.468 19.465 28.069V28.844C19.465 30.444 20.374 31.522 22.277 31.522C23.937 31.522 24.864 30.443 24.905 29.115H23.16L23.161 29.114ZM25.913 25.507H27.757V27.559H27.873L29.072 25.507H31.141L29.595 28.167L31.315 31.404H29.121L27.904 28.948H27.757V31.404H25.913V25.507ZM32.043 25.793C32.043 25.821 32.025 25.84 31.993 25.84H31.953V25.75H31.993C32.025 25.75 32.043 25.768 32.043 25.793ZM31.953 25.941H31.98L32.038 26.055H32.191L32.111 25.915C32.1306 25.9013 32.1465 25.8831 32.1573 25.8618C32.1681 25.8405 32.1735 25.8169 32.173 25.793C32.173 25.701 32.118 25.643 32.01 25.643H31.821V26.055H31.952V25.941H31.953ZM31.985 25.479C32.228 25.479 32.368 25.645 32.368 25.864C32.368 26.079 32.228 26.248 31.985 26.248C31.743 26.248 31.603 26.078 31.603 25.864C31.603 25.645 31.743 25.479 31.985 25.479ZM31.985 25.389C31.9211 25.3858 31.8572 25.3958 31.7973 25.4184C31.7374 25.441 31.6828 25.4756 31.6369 25.5201C31.5909 25.5647 31.5546 25.6182 31.5302 25.6773C31.5058 25.7365 31.4938 25.8 31.495 25.864C31.495 26.122 31.684 26.338 31.985 26.338C32.285 26.338 32.475 26.122 32.475 25.864C32.4762 25.8 32.4642 25.7365 32.4398 25.6773C32.4154 25.6182 32.3791 25.5647 32.3331 25.5201C32.2872 25.4756 32.2326 25.441 32.1727 25.4184C32.1128 25.3958 32.0489 25.3858 31.985 25.389Z" fill="#001A3A"/>
</svg>
