<svg width="34" height="34" viewBox="0 0 34 34" fill="none" xmlns="http://www.w3.org/2000/svg">
<g clip-path="url(#clip0_2_435)">
<path fill-rule="evenodd" clip-rule="evenodd" d="M30.17 0H1.64781e-05V17.651C-0.00011603 11.7677 0.000550636 5.88433 0.00201648 0.001V26.491C1.64781e-05 23.553 1.64781e-05 20.614 1.64781e-05 17.674V34H6.34702L6.38102 33.93C6.43602 33.819 6.49302 33.705 6.49902 33.578C6.48402 33.446 6.39002 33.347 6.30102 33.253L6.25302 33.2L4.10602 31.055H4.10502L4.10302 31.052C3.02802 29.978 1.95302 28.903 0.876016 27.831C0.847016 27.803 0.819016 27.774 0.791016 27.744C0.689016 27.639 0.585016 27.53 0.437016 27.502C0.320017 27.499 0.215016 27.548 0.111016 27.597C0.0740165 27.613 0.0380165 27.63 0.00101648 27.645V26.492C0.394016 26.094 0.791016 25.698 1.18702 25.303C1.58302 24.908 1.97902 24.513 2.37202 24.114C2.48341 23.9884 2.63723 23.9083 2.80402 23.889C3.04702 23.871 3.27202 24.132 3.20402 24.371C3.18402 24.441 3.15102 24.51 3.11802 24.578C3.06202 24.691 3.00702 24.806 3.01102 24.935C3.04802 25.085 3.15902 25.192 3.26602 25.295L3.32202 25.349L5.04202 27.071L5.05502 27.084L5.08402 27.112C6.31002 28.34 7.53702 29.568 8.76602 30.794C8.85602 30.88 8.95602 30.976 9.08702 30.986C9.20502 30.986 9.30902 30.936 9.41302 30.885C9.49302 30.846 9.57202 30.807 9.65802 30.79C9.89802 30.74 10.14 30.98 10.108 31.219C10.087 31.426 9.94002 31.583 9.79802 31.719L7.51702 33.999H17.18C17.23 33.899 17.291 33.771 17.202 33.671C17.082 33.532 16.951 33.404 16.819 33.275C16.7331 33.1922 16.6488 33.1079 16.566 33.022L15.956 32.412L15.943 32.398L15.935 32.391C15.307 31.763 14.679 31.136 14.053 30.505L14.039 30.492C13.971 30.43 13.896 30.362 13.803 30.369C13.751 30.38 13.703 30.402 13.653 30.424C13.598 30.4527 13.539 30.4729 13.478 30.484C13.35 30.476 13.228 30.351 13.25 30.219C13.29 30.1 13.377 30.012 13.463 29.924L13.485 29.902L13.5 29.887C13.704 29.687 13.905 29.486 14.105 29.284H14.106C14.356 29.034 14.605 28.782 14.86 28.537C16.2659 29.9468 17.6736 31.3548 19.083 32.761L18.448 33.394L18.447 33.396L17.841 34H34V0H30.17ZM32.227 0.002H31.638L30.171 0C29.731 0 29.293 0 28.854 0.002H25.386C24.0347 -0.00036576 22.6833 -0.00036576 21.332 0.002H0.00201648H25.386C25.751 0.002 26.116 0.003 26.48 0.005C26.213 0.275 25.943 0.545 25.673 0.815C25.462 1.026 25.251 1.236 25.042 1.447C25.144 1.555 25.249 1.659 25.354 1.763C25.444 1.851 25.533 1.939 25.62 2.029C26.055 1.729 26.548 1.49 27.083 1.451C27.565 1.401 28.051 1.526 28.493 1.719C28.543 1.74 28.593 1.765 28.643 1.791C28.758 1.85 28.875 1.91 29.007 1.922C29.193 1.912 29.332 1.747 29.397 1.582C29.45 1.469 29.4 1.333 29.311 1.251C29.135 1.073 28.958 0.897 28.781 0.721C28.5425 0.483545 28.3051 0.244875 28.069 0.005C28.33 0.003 28.592 0.002 28.854 0.002H32.227ZM32.227 0.002H33.831H32.227ZM33.999 17.048V17.188L33.94 17.211C33.863 17.241 33.782 17.275 33.706 17.238C33.614 17.179 33.538 17.1 33.463 17.022C33.433 16.992 33.404 16.96 33.373 16.931C32.879 16.439 32.386 15.945 31.893 15.451C31.2347 14.79 30.5741 14.1313 29.911 13.475L29.536 13.851V13.852H29.535C29.201 14.188 28.869 14.522 28.529 14.85C28.679 15.018 28.839 15.176 28.999 15.333C29.103 15.435 29.206 15.537 29.308 15.642V15.643C30.237 16.571 31.164 17.499 32.096 18.427L32.151 18.482C32.214 18.543 32.277 18.605 32.31 18.688C32.32 18.766 32.286 18.836 32.254 18.905C32.2368 18.9396 32.2221 18.9753 32.21 19.012C32.163 19.137 32.263 19.287 32.395 19.291C32.513 19.312 32.613 19.234 32.688 19.155C32.98 18.861 33.274 18.568 33.568 18.275L33.571 18.271L33.999 17.845V34V17.048ZM33.999 8.742V17.048C34.001 14.946 34 12.843 33.999 10.74V8.742ZM33.999 5.708V5.792C33.7743 5.57072 33.551 5.34805 33.329 5.124C33.15 4.944 32.972 4.764 32.792 4.586C32.684 4.475 32.51 4.418 32.363 4.486C32.2612 4.53022 32.1788 4.60978 32.131 4.71C32.079 4.913 32.167 5.113 32.248 5.295L32.253 5.306C32.503 5.835 32.613 6.431 32.538 7.013C32.488 7.409 32.346 7.799 32.131 8.138C32.074 8.22 32.021 8.305 31.971 8.391C32.069 8.476 32.161 8.569 32.251 8.662C32.352 8.765 32.453 8.867 32.563 8.959C32.863 8.65 33.168 8.346 33.474 8.041L33.475 8.04C33.65 7.866 33.825 7.691 33.998 7.516V8.742V5.708H33.999ZM33.999 0.734V5.708C34.001 4.448 34 3.188 33.999 1.93V0.734ZM33.999 0.002V0.734V0.002ZM33.999 0.002H33.904H34H33.999ZM0.00201648 34H2.64502H0.00201648ZM24.524 1.96C24.556 1.925 24.613 1.892 24.645 1.946C27.134 4.432 29.621 6.919 32.106 9.408C31.233 10.28 30.361 11.154 29.489 12.028C29.375 12.135 29.236 12.225 29.079 12.235C28.861 12.253 28.643 12.057 28.661 11.835C28.665 11.728 28.711 11.633 28.759 11.537C28.807 11.439 28.856 11.34 28.858 11.228C28.864 11.099 28.773 11.001 28.688 10.91L28.668 10.89C27.404 9.628 26.142 8.365 24.879 7.1H24.878L24.873 7.094L23.135 5.355L23.111 5.332C23.014 5.237 22.905 5.132 22.761 5.142C22.6539 5.15082 22.5503 5.184 22.458 5.239C22.35 5.293 22.242 5.347 22.118 5.334C21.982 5.338 21.871 5.23 21.803 5.12C21.71 4.927 21.796 4.695 21.936 4.552L22.04 4.448L22.041 4.447C22.871 3.617 23.699 2.789 24.524 1.96ZM28.476 2.453C28.315 2.432 28.179 2.553 28.108 2.685C28.04 2.871 28.118 3.071 28.218 3.231C28.415 3.556 28.572 3.928 28.548 4.317C28.538 4.45 28.492 4.572 28.445 4.695C28.431 4.73 28.417 4.766 28.405 4.802C28.511 4.928 28.631 5.043 28.751 5.159C28.839 5.245 28.928 5.33 29.011 5.419C29.179 5.345 29.357 5.269 29.543 5.273C29.903 5.256 30.246 5.398 30.55 5.577L30.577 5.592C30.711 5.666 30.853 5.744 31.007 5.742C31.203 5.72 31.389 5.538 31.371 5.334C31.343 5.163 31.217 5.043 31.095 4.927C30.3625 4.19623 29.6308 3.46457 28.9 2.732L28.868 2.702C28.759 2.59 28.638 2.467 28.475 2.454L28.476 2.453ZM12.375 4.578C12.575 4.368 12.78 4.164 12.985 3.96C13.176 3.77 13.367 3.58 13.553 3.386C13.843 3.667 14.126 3.951 14.41 4.236L14.639 4.464C14.756 4.578 14.649 4.771 14.517 4.817C14.439 4.827 14.369 4.794 14.299 4.76C14.27 4.74546 14.2403 4.73244 14.21 4.721C13.825 4.531 13.346 4.511 12.96 4.718C12.921 4.734 12.885 4.758 12.848 4.781C12.792 4.817 12.736 4.853 12.671 4.864C12.6068 4.81014 12.5461 4.75237 12.489 4.691C12.451 4.653 12.414 4.614 12.375 4.578ZM13.043 5.711C12.742 5.408 12.44 5.104 12.133 4.807C11.843 5.104 11.551 5.397 11.258 5.687L10.758 6.188C10.6937 6.24575 10.6519 6.32439 10.64 6.41C10.626 6.52 10.726 6.628 10.833 6.638C10.8927 6.63095 10.9505 6.61227 11.003 6.583C11.074 6.55 11.145 6.516 11.226 6.535C11.298 6.572 11.355 6.631 11.412 6.69C12.3679 7.6495 13.3255 8.60716 14.285 9.563C14.345 9.626 14.421 9.708 14.378 9.801C14.367 9.83522 14.3537 9.86864 14.338 9.901C14.294 10.001 14.247 10.107 14.331 10.198C14.424 10.33 14.617 10.283 14.713 10.176C15.183 9.712 15.649 9.246 16.113 8.776C15.648 8.316 15.186 7.854 14.725 7.391H14.724L14.722 7.389V7.388H14.721C14.374 7.041 14.028 6.694 13.681 6.349C13.468 6.138 13.256 5.925 13.043 5.711ZM13.996 5.378C13.9858 5.34927 13.982 5.31868 13.9847 5.28832C13.9875 5.25796 13.9968 5.22856 14.012 5.20214C14.0272 5.17572 14.0479 5.15291 14.0728 5.13528C14.0977 5.11765 14.1261 5.10561 14.156 5.1C14.249 5.085 14.324 5.156 14.388 5.217L14.682 5.511L14.683 5.512C14.971 5.801 15.259 6.09 15.549 6.374L15.595 6.422C15.654 6.48 15.715 6.54 15.72 6.628C15.734 6.738 15.627 6.845 15.513 6.835C15.418 6.835 15.338 6.787 15.257 6.74C15.2113 6.71148 15.1631 6.68705 15.113 6.667C15.0132 6.61883 14.9035 6.59439 14.7927 6.59561C14.6818 6.59682 14.5728 6.62365 14.474 6.674L14.414 6.613C14.33 6.529 14.246 6.444 14.16 6.367C14.207 6.21 14.25 6.042 14.21 5.877C14.193 5.769 14.142 5.675 14.091 5.581C14.0535 5.51624 14.0217 5.44831 13.996 5.378ZM21.186 5.471C21.0509 5.492 20.9264 5.55703 20.832 5.656L19.704 6.784L19.703 6.785V6.786H19.702L19.701 6.787L19.7 6.788V6.789C19.198 7.291 18.696 7.794 18.19 8.295C18.541 8.962 18.9 9.625 19.26 10.287C19.622 10.954 19.983 11.622 20.336 12.293L20.386 12.286L20.356 12.323L20.351 12.33L20.337 12.348L20.325 12.361C20.291 12.324 20.252 12.295 20.215 12.267L20.197 12.254C19.566 11.946 18.935 11.641 18.304 11.336C17.597 10.995 16.89 10.654 16.184 10.308C15.676 10.812 15.169 11.318 14.662 11.825L14.656 11.832H14.655V11.833H14.654V11.834H14.653V11.835H14.652V11.836H14.651V11.837L13.617 12.868C13.5178 12.9573 13.4431 13.0706 13.4 13.197C13.346 13.386 13.467 13.593 13.642 13.671C13.789 13.718 13.946 13.661 14.064 13.568L14.137 13.51C14.227 13.437 14.319 13.362 14.442 13.379C14.843 13.427 15.203 13.611 15.559 13.792L15.745 13.886C16.811 14.413 17.877 14.942 18.943 15.471H18.945C20.528 16.257 22.111 17.043 23.695 17.823C23.788 17.727 23.881 17.631 23.977 17.541C23.9608 17.5007 23.9418 17.4616 23.92 17.424C23.258 16.194 22.594 14.967 21.93 13.739L21.927 13.736C21.263 12.508 20.598 11.281 19.937 10.051L22.285 12.398L22.286 12.399L22.287 12.401L22.289 12.402V12.403L22.292 12.406H22.293L24.741 14.853C24.82 14.939 24.902 15.035 24.913 15.153C24.916 15.273 24.863 15.38 24.811 15.485C24.756 15.598 24.7 15.71 24.713 15.839C24.738 16.028 24.923 16.192 25.116 16.181C25.291 16.181 25.441 16.074 25.559 15.956C26.011 15.506 26.463 15.053 26.914 14.601L26.916 14.599C27.38 14.134 27.843 13.669 28.308 13.207C28.418 13.097 28.515 12.957 28.529 12.797C28.558 12.561 28.326 12.329 28.09 12.368C28.001 12.384 27.92 12.424 27.838 12.463C27.733 12.513 27.628 12.565 27.508 12.565C27.388 12.565 27.297 12.48 27.211 12.4C27.1959 12.3855 27.1805 12.3711 27.165 12.357C25.7 10.887 24.23 9.42 22.76 7.952L22.757 7.949L21.7 6.895C21.6822 6.87612 21.6642 6.85745 21.646 6.839C21.556 6.747 21.462 6.651 21.432 6.521C21.424 6.393 21.478 6.283 21.532 6.172C21.573 6.087 21.615 6.002 21.628 5.91C21.675 5.667 21.425 5.435 21.186 5.47V5.471ZM16.145 6.26C16.209 6.142 16.391 6.128 16.477 6.228C16.709 6.462 16.945 6.697 17.18 6.931V6.932L17.182 6.933L17.569 7.32C17.163 7.73 16.753 8.14 16.342 8.545C16.308 8.505 16.269 8.469 16.231 8.433C16.1616 8.3735 16.1012 8.30409 16.052 8.227L16.068 8.201C16.181 8.009 16.296 7.813 16.328 7.588C16.388 7.263 16.334 6.92 16.195 6.62C16.187 6.597 16.177 6.574 16.167 6.55C16.127 6.453 16.085 6.35 16.145 6.26ZM10.405 6.617C10.301 6.642 10.222 6.72 10.151 6.795L9.53102 7.415H9.53002V7.416C9.26602 7.678 9.00202 7.94 8.74002 8.206C8.63002 8.306 8.58702 8.498 8.72302 8.595C8.81602 8.67 8.90902 8.628 9.00302 8.585C9.07902 8.55 9.15602 8.515 9.23302 8.541C9.30602 8.584 9.36302 8.643 9.42302 8.702L9.48302 8.762L9.76102 9.041H9.76202C10.052 9.331 10.342 9.622 10.633 9.908L10.399 10.14C10.322 10.218 10.244 10.296 10.165 10.373C10.265 10.483 10.372 10.587 10.479 10.69C10.636 10.537 10.791 10.383 10.944 10.226C11.196 10.475 11.446 10.726 11.696 10.976H11.697L12.25 11.529L12.264 11.543L12.278 11.558C12.316 11.598 12.354 11.638 12.382 11.686C12.402 11.766 12.369 11.838 12.336 11.91C12.304 11.98 12.272 12.051 12.289 12.13C12.3026 12.1638 12.3229 12.1946 12.3487 12.2203C12.3744 12.2461 12.4052 12.2664 12.439 12.28C12.561 12.308 12.668 12.222 12.749 12.14C13.214 11.68 13.679 11.215 14.142 10.751L14.158 10.735C14.218 10.672 14.283 10.604 14.299 10.515C14.342 10.387 14.217 10.24 14.082 10.255C14.033 10.265 13.987 10.286 13.942 10.307C13.885 10.3363 13.8235 10.3559 13.76 10.365C13.679 10.347 13.617 10.286 13.56 10.231L13.535 10.208C12.917 9.592 12.299 8.974 11.682 8.355H11.681L10.679 7.352L10.656 7.327C10.603 7.27 10.546 7.207 10.558 7.124C10.5691 7.07914 10.5848 7.03556 10.605 6.994C10.635 6.922 10.666 6.852 10.651 6.774C10.637 6.66 10.508 6.596 10.404 6.617H10.405ZM8.64002 8.745C8.59002 8.623 8.43002 8.58 8.32202 8.648C8.27122 8.67986 8.22425 8.71744 8.18202 8.76L8.16502 8.777C7.70502 9.241 7.24102 9.705 6.77702 10.169C6.70102 10.244 6.62302 10.333 6.63402 10.444C6.63702 10.547 6.73002 10.644 6.83702 10.64C6.89302 10.634 6.94502 10.611 6.99702 10.59C7.05862 10.5569 7.12712 10.5388 7.19702 10.537C7.28502 10.569 7.34902 10.634 7.41302 10.699C8.36778 11.6569 9.32445 12.6129 10.283 13.567C10.3281 13.6112 10.3623 13.6653 10.383 13.725C10.3809 13.79 10.3631 13.8535 10.331 13.91C10.301 13.977 10.271 14.043 10.282 14.118C10.296 14.238 10.436 14.31 10.55 14.278C10.638 14.251 10.706 14.185 10.77 14.121L10.787 14.105L10.803 14.089C11.065 13.823 11.33 13.559 11.594 13.295C11.794 13.095 11.996 12.895 12.196 12.693C12.303 12.6 12.346 12.404 12.221 12.304C12.129 12.236 12.029 12.276 11.93 12.315C11.821 12.358 11.714 12.401 11.621 12.3C10.945 11.627 10.271 10.952 9.59602 10.276H9.59502V10.275H9.59402V10.274H9.59302V10.273H9.59202V10.272L9.59102 10.271H9.59002V10.27V10.269H9.58902V10.267L8.65902 9.337L8.64202 9.32C8.59902 9.275 8.55202 9.225 8.55502 9.159C8.55702 9.099 8.58002 9.043 8.60502 8.987C8.63702 8.908 8.67002 8.83 8.64102 8.745H8.64002ZM6.10202 10.843C6.19302 10.751 6.28402 10.66 6.37702 10.569C6.58102 10.767 6.78202 10.969 6.98402 11.172C7.15402 11.342 7.32402 11.512 7.49402 11.679L7.54002 11.728C7.59202 11.782 7.64502 11.836 7.67202 11.908C7.71502 12.083 7.51602 12.275 7.34102 12.197C7.24432 12.1496 7.15283 12.0923 7.06802 12.026C7.001 11.975 6.93087 11.9282 6.85802 11.886C6.57702 11.711 6.24802 11.601 5.91302 11.64C5.88051 11.6068 5.84751 11.5742 5.81402 11.542C5.74802 11.477 5.68102 11.412 5.62402 11.34C5.64702 11.293 5.68402 11.258 5.71902 11.222L5.74102 11.201C5.86302 11.083 5.98202 10.963 6.10202 10.843ZM5.07802 11.87C4.78102 12.166 4.48502 12.463 4.18602 12.757C4.15228 12.7949 4.12025 12.8343 4.09002 12.875L4.07902 12.889C4.72902 13.532 5.37602 14.179 6.02202 14.827C6.51002 15.316 6.99802 15.805 7.48802 16.292L7.52202 16.328C7.57202 16.38 7.62602 16.435 7.62002 16.513C7.61613 16.5715 7.59976 16.6284 7.57202 16.68C7.54654 16.728 7.52994 16.7801 7.52302 16.834C7.51302 16.942 7.62002 17.049 7.73102 17.038C7.83102 17.045 7.91602 16.978 7.98402 16.91L8.44402 16.45V16.448C8.77202 16.12 9.09902 15.792 9.43002 15.464C9.49002 15.399 9.54402 15.321 9.54402 15.228C9.54802 15.092 9.39802 14.978 9.26902 15.035L9.19502 15.065C9.08402 15.115 8.96202 15.168 8.86502 15.06C8.61002 14.814 8.36002 14.561 8.11002 14.309C7.95002 14.149 7.79102 13.988 7.63002 13.829C6.87702 13.079 6.12502 12.326 5.37402 11.572L5.07802 11.87ZM30.978 12.408C31.421 12.843 31.86 13.282 32.296 13.725C32.435 13.857 32.335 14.121 32.149 14.15C32.011 14.17 31.899 14.086 31.792 14.006C31.765 13.986 31.74 13.967 31.714 13.95C31.36 13.707 30.942 13.479 30.5 13.554C30.3805 13.4495 30.2704 13.3347 30.171 13.211C30.367 13.023 30.558 12.831 30.748 12.639L30.978 12.408ZM4.03502 13.312C3.97934 13.2355 3.9059 13.1738 3.82102 13.132C3.67902 13.262 3.54402 13.4 3.40802 13.536C3.29502 13.65 3.18202 13.765 3.06502 13.875C3.25802 14.07 3.45202 14.263 3.64502 14.455L3.64602 14.457C3.85176 14.6609 4.05676 14.8656 4.26102 15.071C4.31102 15.12 4.36702 15.174 4.44302 15.174C4.60002 15.192 4.75302 15.028 4.70702 14.871C4.67502 14.784 4.62202 14.709 4.56902 14.634L4.51402 14.554C4.28202 14.228 4.08602 13.839 4.14302 13.425C4.10502 13.392 4.07002 13.352 4.03502 13.312ZM11.765 15.146C12.4816 14.9226 13.2436 14.8868 13.978 15.042C15.22 15.307 16.32 16.035 17.198 16.938C18.058 17.809 18.744 18.902 18.976 20.119C19.104 20.787 19.076 21.486 18.883 22.139C18.6863 22.7849 18.3581 23.3831 17.919 23.896C17.8388 23.8122 17.7572 23.7299 17.674 23.649C17.564 23.541 17.454 23.432 17.352 23.318C17.352 23.261 17.372 23.21 17.393 23.158C17.408 23.121 17.423 23.085 17.43 23.047C17.4761 22.8899 17.4782 22.7232 17.4361 22.565C17.3939 22.4069 17.3092 22.2633 17.191 22.15C16.301 21.258 15.408 20.365 14.515 19.473L14.513 19.47L11.893 16.849C11.733 16.685 11.529 16.552 11.297 16.535C11.11 16.51 10.927 16.576 10.749 16.64L10.744 16.642C10.69 16.671 10.651 16.629 10.615 16.591C10.6039 16.5784 10.5919 16.5667 10.579 16.556C10.513 16.484 10.443 16.416 10.373 16.346C10.2921 16.2683 10.2134 16.1883 10.137 16.106L10.135 16.085L10.133 16.063C10.6109 15.6523 11.1657 15.3406 11.765 15.146ZM16.985 15.133C16.8542 15.061 16.7178 14.9998 16.577 14.95C16.665 15.054 16.762 15.148 16.859 15.242C16.918 15.3 16.977 15.357 17.034 15.417L18.49 16.875L19.943 18.33C20.2 18.641 20.433 19.002 20.49 19.409C20.523 19.615 20.461 19.816 20.4 20.014L20.368 20.119C20.297 20.348 20.528 20.597 20.765 20.562C20.929 20.544 21.065 20.433 21.182 20.326C21.626 19.891 22.066 19.451 22.503 19.009C22.635 18.873 22.76 18.709 22.771 18.512C22.7645 18.439 22.7382 18.3692 22.6948 18.3101C22.6514 18.2511 22.5927 18.205 22.525 18.177C22.394 18.136 22.26 18.18 22.135 18.222L22.121 18.227C21.868 18.317 21.581 18.317 21.328 18.22C20.965 18.0838 20.638 17.8662 20.372 17.584L19.993 17.206L19.991 17.204C19.628 16.842 19.267 16.481 18.908 16.117C18.8665 16.0763 18.8198 16.0413 18.769 16.013C18.5 15.883 18.234 15.75 17.967 15.618C17.6604 15.4652 17.3531 15.3139 17.045 15.164L16.985 15.133ZM27.465 15.921L27.717 15.67V15.669H27.718L28.272 15.114C28.354 15.18 28.428 15.256 28.503 15.331C28.536 15.365 28.57 15.399 28.604 15.431C28.558 15.789 28.679 16.141 28.864 16.441C28.907 16.518 28.959 16.589 29.01 16.66C29.074 16.75 29.138 16.839 29.186 16.938C29.233 17.024 29.2 17.12 29.168 17.206C29.618 17.51 30.012 17.892 30.328 18.334C30.689 18.844 30.942 19.451 30.928 20.087C30.932 20.69 30.671 21.268 30.289 21.726C30.255 21.69 30.219 21.656 30.182 21.621C30.108 21.551 30.034 21.481 29.975 21.401C29.981 21.358 29.991 21.315 30.002 21.272C30.025 21.184 30.047 21.097 30.025 21.008C29.992 20.848 29.875 20.732 29.764 20.622L29.739 20.597C28.797 19.658 27.858 18.72 26.919 17.781C26.826 17.688 26.716 17.602 26.583 17.591C26.459 17.5842 26.335 17.6051 26.22 17.652C26.113 17.552 26.007 17.446 25.903 17.342L25.891 17.331C26.366 16.924 26.983 16.663 27.615 16.695C27.845 16.689 28.069 16.74 28.293 16.791L28.329 16.799C28.2145 16.6809 28.0985 16.5642 27.981 16.449C27.805 16.276 27.631 16.103 27.465 15.92V15.921ZM9.89102 16.755C9.81252 16.6788 9.73485 16.6018 9.65802 16.524C9.28333 16.9676 8.98769 17.4723 8.78402 18.016C8.51002 18.7644 8.45045 19.5745 8.61202 20.355C8.84402 21.522 9.50202 22.568 10.315 23.421C11.197 24.339 12.3 25.092 13.553 25.367C14.3813 25.5539 15.2461 25.4945 16.041 25.196C16.5642 24.9938 17.0487 24.7028 17.473 24.336C17.377 24.239 17.28 24.144 17.183 24.048C17.0868 23.9526 16.9908 23.8569 16.895 23.761C16.685 23.839 16.459 23.918 16.231 23.882C15.974 23.842 15.771 23.672 15.602 23.489L13.942 21.829L13.937 21.825V21.824C12.753 20.642 11.571 19.46 10.39 18.277C10.165 18.055 10.044 17.72 10.137 17.413C10.1455 17.3699 10.1589 17.328 10.177 17.288C10.206 17.218 10.234 17.149 10.212 17.078C10.108 16.968 9.99902 16.861 9.89102 16.755ZM25.331 20.537C25.102 20.08 24.959 19.566 25.009 19.048C25.0601 18.5032 25.2844 17.989 25.649 17.581C25.716 17.651 25.788 17.721 25.859 17.792L25.969 17.902L25.949 17.966C25.913 18.076 25.875 18.189 25.905 18.302C25.927 18.423 26.009 18.52 26.095 18.605L27.491 20.002L27.494 20.005L27.497 20.008L28.915 21.426L28.945 21.456L28.966 21.476C29.06 21.571 29.156 21.668 29.29 21.704C29.425 21.741 29.563 21.699 29.695 21.658L29.718 21.651L29.748 21.681L29.782 21.714V21.715C29.869 21.801 29.957 21.888 30.039 21.979C29.589 22.35 29.029 22.611 28.436 22.611C27.862 22.636 27.298 22.433 26.819 22.133C26.4717 21.9138 26.159 21.6442 25.891 21.333C26.0195 21.7564 25.9838 22.2127 25.791 22.611C25.598 22.997 25.299 23.311 25.002 23.614L24.99 23.602C24.887 23.499 24.78 23.392 24.674 23.289C24.767 23.139 24.827 22.961 24.77 22.786C24.713 22.636 24.602 22.522 24.492 22.41L24.427 22.343C24.162 22.075 23.895 21.807 23.627 21.54L23.604 21.517C23.454 21.377 23.291 21.225 23.078 21.211C22.946 21.197 22.828 21.265 22.718 21.329C22.664 21.2764 22.6103 21.2234 22.557 21.17C22.5015 21.1145 22.4455 21.0595 22.389 21.005C22.817 20.573 23.306 20.126 23.935 20.048C24.449 19.962 24.966 20.183 25.331 20.537ZM6.58802 20.1C6.43802 20.111 6.29902 20.19 6.19202 20.293C5.68602 20.803 5.17802 21.311 4.66902 21.819L4.66802 21.82L3.51402 22.974L3.49002 23C3.37202 23.114 3.24402 23.238 3.20002 23.405C3.10702 23.658 3.35402 23.965 3.62502 23.919C3.71302 23.902 3.79502 23.862 3.87602 23.822C3.99002 23.766 4.10502 23.71 4.23602 23.719C4.36902 23.751 4.46702 23.849 4.56202 23.943L4.62802 24.008C4.90802 24.286 5.18602 24.565 5.46402 24.843C5.95202 25.333 6.44102 25.823 6.93402 26.307L6.93302 26.337C6.93202 26.347 6.93135 26.357 6.93102 26.367C6.64102 26.645 6.35802 26.928 6.08102 27.217C6.27402 27.414 6.46702 27.607 6.66002 27.799C6.80302 27.661 6.94402 27.519 7.08502 27.377C7.22502 27.237 7.36402 27.097 7.50502 26.96C7.54202 26.922 7.57502 26.956 7.60502 26.985C8.01834 27.3993 8.43233 27.813 8.84702 28.226V28.227L8.84802 28.228L8.85002 28.23C9.26302 28.642 9.67702 29.055 10.09 29.47L10.117 29.5C10.193 29.585 10.277 29.677 10.283 29.795C10.2732 29.909 10.238 30.0194 10.18 30.118C10.13 30.2059 10.0961 30.3021 10.08 30.402C10.0781 30.4554 10.087 30.5086 10.106 30.5584C10.125 30.6083 10.1538 30.6539 10.1907 30.6925C10.2276 30.7311 10.2719 30.7619 10.3209 30.7831C10.3699 30.8043 10.4226 30.8155 10.476 30.816C10.651 30.816 10.801 30.713 10.922 30.595L13.689 27.828C13.799 27.714 13.889 27.568 13.896 27.407C13.906 27.171 13.671 26.957 13.436 27.003C13.354 27.023 13.279 27.06 13.204 27.098C13.098 27.15 12.993 27.203 12.871 27.203C12.75 27.193 12.654 27.11 12.568 27.028L7.07002 21.53C7.05774 21.5179 7.04541 21.5059 7.03302 21.494C6.92702 21.39 6.81202 21.276 6.79902 21.124C6.80302 21.002 6.85502 20.895 6.90602 20.788C6.93902 20.721 6.97102 20.654 6.99202 20.584C7.06002 20.344 6.83502 20.088 6.58802 20.102V20.1ZM22.886 22C23.052 22.166 23.216 22.333 23.385 22.497C24.183 23.299 24.985 24.101 25.787 24.902L25.791 24.907L25.801 24.915L25.807 24.92L25.83 24.94C25.874 24.98 25.919 25.02 25.977 25.031C26.0494 25.0316 26.1206 25.0126 26.183 24.976C26.254 24.943 26.325 24.91 26.405 24.924C26.498 24.956 26.583 25.046 26.573 25.149C26.573 25.267 26.488 25.355 26.41 25.435C26.1451 25.6974 25.8811 25.9607 25.618 26.225L25.617 26.227L24.867 26.974C24.756 27.095 24.549 27.034 24.481 26.899C24.433 26.819 24.47 26.736 24.506 26.655C24.546 26.567 24.584 26.479 24.509 26.399C23.4505 25.3445 22.3938 24.2882 21.339 23.23C21.293 23.1772 21.239 23.132 21.179 23.096C21.085 23.07 21.004 23.108 20.923 23.145C20.87 23.169 20.817 23.193 20.761 23.2C20.651 23.19 20.543 23.093 20.551 22.979C20.54 22.855 20.631 22.759 20.709 22.677L20.711 22.675C21.186 22.204 21.661 21.729 22.131 21.258C22.389 21.498 22.638 21.748 22.886 22ZM19.437 23.95C19.274 24.114 19.112 24.277 18.947 24.439C19.056 24.544 19.161 24.652 19.266 24.76L19.272 24.767L19.33 24.733C19.511 24.625 19.694 24.517 19.9 24.475C20.261 24.382 20.64 24.46 20.968 24.621L21.022 24.646C21.088 24.678 21.156 24.712 21.229 24.703C21.361 24.646 21.496 24.457 21.368 24.332L20.799 23.762L20.219 23.179C19.953 23.43 19.695 23.69 19.437 23.949V23.95ZM18.029 25.36C18.252 25.138 18.476 24.916 18.698 24.692C19.068 25.058 19.436 25.427 19.805 25.795C20.232 26.223 20.658 26.65 21.089 27.074C21.336 27.319 21.581 27.565 21.827 27.812C22.193 28.179 22.558 28.546 22.927 28.909C22.671 29.173 22.41 29.434 22.15 29.694C21.924 29.918 21.7 30.142 21.479 30.369C21.4063 30.4386 21.3198 30.492 21.225 30.526L21.205 30.519C21.12 30.489 21.023 30.455 20.997 30.362C20.967 30.272 21.005 30.192 21.042 30.112C21.074 30.042 21.106 29.974 21.097 29.898C21.0368 29.7949 20.9601 29.7023 20.87 29.624C20.844 29.5991 20.8183 29.5737 20.793 29.548L18.191 26.945C18.143 26.9 18.0963 26.8537 18.051 26.806C17.951 26.702 17.851 26.598 17.727 26.524C17.647 26.508 17.572 26.544 17.497 26.577C17.4 26.622 17.305 26.667 17.205 26.595C17.055 26.499 17.098 26.285 17.212 26.178C17.482 25.903 17.755 25.632 18.028 25.361L18.029 25.36ZM20.907 25C20.754 24.974 20.618 25.146 20.675 25.292C20.701 25.366 20.739 25.435 20.776 25.505C20.826 25.598 20.876 25.692 20.9 25.795C20.9496 25.9758 20.9293 26.1686 20.843 26.335C20.921 26.41 20.997 26.486 21.073 26.564H21.074V26.565L21.182 26.674C21.2887 26.6194 21.4067 26.5906 21.5265 26.5899C21.6464 26.5892 21.7647 26.6166 21.872 26.67C21.926 26.69 21.977 26.72 22.028 26.75C22.124 26.805 22.218 26.86 22.332 26.849C22.428 26.839 22.478 26.752 22.521 26.677L22.527 26.667L22.535 26.652C22.497 26.515 22.395 26.42 22.295 26.327C22.265 26.299 22.235 26.271 22.207 26.242C21.997 26.028 21.785 25.817 21.573 25.605C21.4091 25.4419 21.2458 25.2782 21.083 25.114C21.0362 25.06 20.9753 25.0202 20.907 24.999V25ZM22.971 26.224C23.046 26.11 23.228 26.092 23.317 26.199L23.754 26.637C23.997 26.879 24.239 27.122 24.477 27.367C24.305 27.535 24.136 27.706 23.966 27.877C23.703 28.143 23.44 28.409 23.167 28.662C23.105 28.596 23.04 28.531 22.975 28.465L22.845 28.334C23.228 27.863 23.281 27.181 23.025 26.638C23.0157 26.6131 23.0057 26.5884 22.995 26.564C22.947 26.452 22.895 26.328 22.971 26.224ZM16.62 27.549C17.255 27.495 17.887 27.723 18.412 28.069C18.822 28.345 19.205 28.662 19.497 29.059C19.8547 29.5274 20.0537 30.0977 20.065 30.687C20.075 31.357 19.811 32.037 19.333 32.511C19.2228 32.4045 19.1145 32.2962 19.008 32.186L19.02 32.163C19.081 32.049 19.146 31.927 19.126 31.793C19.09 31.579 18.944 31.404 18.797 31.258L16.387 28.848C16.224 28.688 16.037 28.512 15.795 28.495C15.663 28.48 15.545 28.548 15.435 28.612C15.4 28.574 15.361 28.539 15.322 28.504C15.245 28.434 15.167 28.364 15.124 28.27C15.517 27.866 16.052 27.584 16.62 27.549Z" fill="#001A3A"/>
</g>
<defs>
<clipPath id="clip0_2_435">
<rect width="34" height="34" fill="white"/>
</clipPath>
</defs>
</svg>
