<svg width="58" height="25" viewBox="0 0 58 25" fill="none" xmlns="http://www.w3.org/2000/svg">
<path fill-rule="evenodd" clip-rule="evenodd" d="M23.895 19.724C27.415 21.561 31.032 23.275 34.172 24.5C37.883 14.948 44.639 7.35603 57.105 0.377033V0.0090332C41.12 5.64203 31.127 9.68303 23.895 19.724ZM30.438 1.10403C26.917 0.825033 8.45597 0.128034 0.271973 5.28803C2.46197 7.24103 4.83997 9.19303 7.69497 11.425C15.879 5.84603 26.345 3.89303 36.052 3.05703V2.63803C34.149 2.35903 32.055 1.80103 30.438 1.10403Z" fill="#001A3A"/>
<path fill-rule="evenodd" clip-rule="evenodd" d="M39.4051 2.88499C32.0781 3.88399 19.2311 6.63099 11.9041 12.624C14.5681 14.372 17.3281 16.12 20.1831 17.743C27.7951 9.12799 38.0731 5.25699 48.4451 2.63499V2.26099C45.8751 2.63499 41.8791 2.88499 39.4051 2.88499Z" fill="#001A3A"/>
</svg>
