<svg width="35" height="35" viewBox="0 0 35 35" fill="none" xmlns="http://www.w3.org/2000/svg">
<path d="M17.482 34.998C7.848 34.998 0 27.189 0 17.498C0 7.847 7.848 0 17.482 0C27.116 0 34.964 7.846 34.964 17.499C34.964 27.189 27.116 34.998 17.482 34.998ZM17.482 0.828C8.28 0.828 0.827 8.288 0.827 17.498C0.827 26.709 8.29 34.17 17.491 34.17C26.693 34.17 34.146 26.71 34.146 17.499C34.136 8.335 26.683 0.828 17.482 0.828ZM32.294 22.485C32.284 22.504 32.257 22.523 32.21 22.504C32.172 22.485 32.153 22.466 32.153 22.438C32.153 22.41 32.736 20.688 32.736 18.703C32.726 16.567 31.862 15.26 30.753 15.26C30.076 15.26 29.587 15.749 29.587 16.473C29.587 17.781 31.185 17.885 31.185 20.744C31.185 21.911 30.941 23.021 30.555 24.234C28.76 30.294 23.045 33.107 17.482 33.107C14.916 33.107 13.092 32.58 12.547 32.335C12.529 32.325 12.51 32.279 12.529 32.241C12.538 32.213 12.576 32.185 12.604 32.194C12.82 32.279 14.39 32.777 16.326 32.777C18.459 32.777 19.719 31.902 19.719 30.839C19.719 30.162 19.192 29.626 18.506 29.626C17.2 29.626 17.096 31.272 14.296 31.272C13.083 31.272 12.021 31.027 10.762 30.642C4.746 28.788 1.88 23.125 1.889 17.499C1.889 14.761 2.659 12.579 2.669 12.559C2.679 12.541 2.716 12.531 2.754 12.541C2.801 12.56 2.81 12.597 2.801 12.607C2.41952 13.8121 2.22295 15.068 2.218 16.332C2.218 18.468 3.092 19.728 4.201 19.728C4.831 19.728 5.367 19.248 5.367 18.562C5.367 17.254 3.769 17.104 3.769 14.291C3.769 13.077 4.013 12.014 4.399 10.753C6.25 4.751 11.918 1.93 17.482 1.891C20.066 1.872 22.332 2.644 22.416 2.719C22.435 2.729 22.444 2.766 22.435 2.804C22.416 2.851 22.388 2.851 22.369 2.851C22.341 2.851 20.865 2.23 18.638 2.23C16.551 2.23 15.245 3.105 15.245 4.215C15.245 4.845 15.725 5.372 16.457 5.372C17.764 5.372 17.857 3.772 20.667 3.772C21.88 3.772 22.942 4.017 24.202 4.402C30.255 6.247 33.009 11.967 33.065 17.489C33.103 20.331 32.304 22.476 32.295 22.485H32.294ZM23.967 18.327C22.322 18.327 21.063 19.54 21.063 20.989C21.063 22.203 21.786 23.172 22.755 23.172C23.093 23.172 23.431 22.974 23.431 22.542C23.431 21.912 22.595 21.761 22.661 20.81C22.698 20.19 23.291 19.776 23.863 19.776C25.029 19.776 25.565 20.904 25.565 22.062C25.518 23.858 24.202 25.1 22.651 25.1C20.621 25.1 19.305 23.162 19.305 21.074C19.305 17.969 21.335 16.755 22.407 16.464C22.417 16.464 25.189 16.962 25.104 15.73C25.067 15.194 24.268 14.987 23.685 14.959C23.036 14.93 22.397 15.166 22.397 15.166C22.059 14.996 21.824 14.658 21.683 14.272C23.666 12.767 25.076 11.318 25.076 9.672C25.076 8.796 24.493 8.025 23.384 8.025C21.401 8.025 19.897 10.546 19.897 12.823C19.897 13.209 19.897 13.594 19.991 13.943C18.731 14.865 17.791 15.438 16.101 16.454C16.101 16.238 16.147 15.692 16.288 14.987C16.871 14.357 17.67 13.407 17.67 12.682C17.67 12.343 17.472 12.052 17.087 12.052C16.119 12.052 15.395 13.51 15.197 14.526C14.766 15.062 13.891 15.739 13.167 15.739C12.585 15.739 12.397 15.203 12.341 15.015C14.183 14.385 16.457 11.863 16.457 9.587C16.457 9.107 16.26 8.034 14.812 8.034C12.632 8.034 10.79 11.28 10.79 13.802C10.01 13.802 9.728 12.974 9.728 12.352C9.728 11.722 9.972 11.092 9.972 10.894C9.972 10.697 9.878 10.462 9.587 10.462C8.863 10.462 8.421 11.431 8.421 12.541C8.468 14.093 9.483 15.062 10.846 15.156C11.044 16.078 11.861 16.953 12.876 16.953C13.506 16.953 14.276 16.756 14.813 16.276C14.765 16.614 14.718 16.906 14.663 17.198C12.538 18.327 10.997 19.098 9.587 20.358C8.477 21.375 7.848 22.73 7.848 23.802C7.848 25.26 8.769 26.615 10.658 26.615C12.886 26.615 14.578 24.818 15.405 22.353C15.79 21.187 15.95 19.493 16.044 17.941C18.271 16.681 19.324 15.947 20.489 15.128C20.63 15.373 20.781 15.561 20.979 15.711C19.963 16.247 17.539 17.743 17.539 21.291C17.539 23.811 19.229 26.625 22.576 26.625C25.339 26.625 27.228 24.348 27.228 22.165C27.218 20.171 26.1 18.327 23.967 18.327ZM10.658 25.11C9.935 25.147 9.446 24.677 9.446 23.906C9.446 21.817 12.331 19.832 14.512 18.769C14.126 21.676 13.139 24.997 10.658 25.109V25.11ZM12.256 13.67C12.256 12.07 13.835 9.032 14.794 9.351C15.931 9.728 13.854 12.795 12.256 13.67ZM21.401 12.945C21.401 10.96 22.745 9.022 23.478 9.389C24.315 9.803 22.858 11.675 21.401 12.945Z" fill="#001A3A"/>
</svg>
