<svg width="38" height="40" viewBox="0 0 38 40" fill="none" xmlns="http://www.w3.org/2000/svg">
<path d="M29.503 5.62697C29.597 5.39697 29.409 5.17897 29.409 5.17897C29.409 5.17897 27.932 2.65697 22.738 2.08797C19.946 1.78997 16.16 2.35897 13.503 3.80997C8.67099 6.42697 7.94599 10.752 7.94599 10.752C7.91899 10.861 7.87899 11.186 7.98599 11.322C8.09299 11.457 8.25399 11.457 8.45599 11.39C10.16 10.807 15.221 9.11197 18.416 8.25697C22.966 7.03697 26.711 6.29097 29.1 5.88497C29.288 5.84397 29.436 5.78997 29.503 5.62697Z" fill="#001A3A"/>
<path d="M34.698 25.993C31.973 32.176 26.752 36.475 19.893 36.569C14.913 36.637 10.51 34.915 7.329 31.905L5.409 32.732V29.722C3.315 26.875 2.094 23.254 2.094 19.159C2.094 8.651 10.054 0.38 21.168 0.38C22.98 0.38 24.618 0.665 25.852 0.95C23.946 0.34 22.054 0 19.946 0C8.026 0 0 9.763 0 19.837C0 30.807 8.523 40 19.705 40C30.389 40 36.148 32.393 38 27.81L34.698 25.993Z" fill="#001A3A"/>
<path d="M31.933 23.8229C33.503 23.6469 34.59 23.0089 35.181 22.4129C35.718 21.8709 35.851 21.1389 35.851 20.5829C35.879 19.7689 35.851 17.2199 35.851 17.2199L31.704 18.1289V19.1049C31.718 19.7549 32.027 20.1079 32.698 19.9859C32.912 19.9459 33.234 19.8499 33.234 19.8499V20.6499C33.234 20.6229 33.302 21.0979 32.254 21.3009C30.886 21.5179 30.268 20.6639 30.254 19.1589C30.282 17.5459 31.181 16.6239 32.282 16.3659C33.516 16.0809 34.214 16.3799 34.617 16.4339C35.986 16.6369 36.375 14.5629 35.127 14.0739C34.201 13.6949 33.007 13.6269 31.865 13.8579C30.335 14.1689 27.342 15.4579 27.329 19.6479C27.315 22.9819 29.745 24.0679 31.933 23.8229ZM18.443 27.3889C18.443 27.3889 19.718 26.9419 19.825 26.9139C20.845 26.5619 21.221 25.9379 21.221 24.8809C21.208 23.7279 21.208 21.4769 21.208 21.4769L24.174 24.9209C24.657 25.4229 25.261 25.4639 25.812 25.3009C26.375 25.1379 26.858 24.6099 26.872 23.8639V15.3079C26.872 15.3079 26.107 15.4709 25.476 15.6479C24.751 15.8509 24.188 16.3249 24.188 17.5729V20.5419C24.188 20.5419 22.496 18.4129 21.409 17.3149C20.832 16.7319 19.866 17.0849 19.866 17.0849L18.443 17.5179V27.3879V27.3889ZM17.543 17.7359C17.543 17.7359 16.657 17.9929 15.933 18.2639C14.993 18.6039 14.443 19.1589 14.443 20.5959V28.7999C14.443 28.7999 15.262 28.5159 16.04 28.2169C17.127 27.7969 17.543 27.2269 17.543 26.0749V17.7369V17.7359ZM13.127 19.6879C12.8162 19.5334 12.4593 19.4992 12.1248 19.5918C11.7904 19.6845 11.5019 19.8975 11.315 20.1899L8.80501 24.5149V21.0299L5.82501 22.2639L5.81201 32.1079L7.90601 31.2259C7.90601 31.2259 8.32201 31.1039 8.56401 30.7109C8.79201 30.3449 8.77801 29.7479 8.77801 29.7479V26.6299L11.114 29.1379C11.624 29.6809 12.564 29.9519 13.395 29.2739C14.147 28.6639 14.026 27.6199 13.61 27.1449L11.49 24.9899C11.49 24.9899 13.355 22.0069 13.664 21.5189C14.066 20.8409 13.865 20.0269 13.127 19.6889V19.6879ZM11.96 31.2679C11.852 31.5249 12.107 31.7829 12.107 31.7829C13.181 33.1529 17.973 34.8879 23.181 33.6129C31.128 31.6739 32.805 25.9929 32.993 25.1929C33.033 25.0299 33.06 24.7729 32.913 24.6099C32.792 24.4739 32.604 24.4739 32.363 24.5289C26.833 25.8439 17.665 28.6779 12.363 30.9689C12.134 31.0639 12.04 31.1049 11.96 31.2679ZM7.24801 18.3589C7.23501 17.8169 6.81801 17.5189 6.10801 17.8839V19.6339C6.10801 19.6339 6.33501 19.5239 6.51001 19.4439C6.94001 19.2399 7.26201 18.8879 7.24801 18.3589ZM6.09401 16.7729C6.22801 16.7179 6.32201 16.6779 6.42901 16.6229C6.81901 16.4329 7.10001 16.0679 7.10001 15.6069C7.10001 15.0769 6.67101 14.9419 6.09401 15.2409V16.7729ZM9.15401 18.1009C9.18101 19.4839 8.20101 20.2159 6.91301 20.7449L4.29501 21.8699V14.6979C4.29501 14.6979 5.94601 14.0199 6.48301 13.8169C8.01301 13.2469 8.91301 13.9389 8.91301 14.9689C8.91301 15.6609 8.61701 16.2439 7.98601 16.7589C8.60401 16.8669 9.14101 17.3829 9.15401 18.1009ZM14.12 12.0529C14.12 11.4429 13.704 11.2939 13.207 11.4299C12.805 11.5519 12.335 11.7279 12.335 11.7279V16.1879C12.335 16.6359 12.268 17.1919 11.717 17.3279C11.301 17.4359 11.1 17.1509 11.1 16.7039V13.0569C11.1 12.4469 10.684 12.2699 10.187 12.4329C9.62401 12.6229 9.30101 12.7579 9.30101 12.7579V17.1779C9.28801 18.6559 10.308 19.4019 11.838 18.9409C13.194 18.5339 14.106 17.7609 14.12 15.7959V12.0529ZM28.698 13.8979C29.087 13.8159 29.328 13.5319 29.328 13.0439V12.2709L27.208 12.7449V11.4849C27.208 11.4849 28.255 11.2679 28.537 11.1999C28.899 11.1179 29.087 10.9149 29.087 10.4949V9.76294L27.207 10.1689V9.16594L28.711 8.85394C29.127 8.77294 29.261 8.48794 29.261 8.09394V7.33594C28.322 7.49794 26.537 7.86394 25.423 8.12194L25.409 14.6569C25.409 14.6569 27.53 14.1549 28.698 13.8969V13.8979ZM16.403 13.6269C16.403 13.6269 17.45 13.0709 17.45 12.2029C17.436 11.4579 16.765 11.6199 16.416 11.7559L16.403 13.6259V13.6269ZM16.416 14.6439V16.4059C16.416 16.8809 16.094 17.2199 15.691 17.3829C15.691 17.3959 15.691 17.3689 15.691 17.3829C15.356 17.5049 14.631 17.7489 14.631 17.7489V11.0099C14.631 11.0099 16.121 10.4809 16.993 10.2779C18.335 9.95294 19.302 10.5759 19.288 11.6879C19.275 12.7449 18.698 13.3829 18.174 13.8299L19.329 14.9419C19.5045 15.1249 19.6014 15.3693 19.5987 15.6228C19.5961 15.8763 19.4943 16.1187 19.315 16.2979C19.073 16.5279 18.443 16.7579 17.959 16.2439C17.946 16.2439 16.416 14.6439 16.416 14.6439ZM31.463 10.0069C31.463 10.0069 32.496 9.61294 32.483 8.77294C32.47 8.06794 31.785 8.18994 31.45 8.27094L31.463 10.0069ZM29.718 13.6939V7.24094C29.718 7.24094 31.584 6.90094 32.067 6.84694C33.409 6.67094 34.308 7.42994 34.282 8.48794C34.268 9.42394 33.691 9.99294 33.194 10.3319C33.194 10.3319 34.107 11.3619 34.349 11.6469C34.671 12.0129 34.657 12.6499 34.174 12.9619C33.9867 13.0913 33.7579 13.1464 33.5323 13.1164C33.3066 13.0865 33.1001 12.9737 32.953 12.7999L31.463 11.0099V12.5829C31.463 13.0569 31.181 13.4099 30.698 13.5049L29.718 13.6949V13.6939Z" fill="#001A3A"/>
<path d="M24.993 10.983L22.349 11.593V12.339C22.349 12.691 22.59 12.909 22.939 12.84C23.154 12.8 23.329 12.759 23.329 12.759V13.505C23.329 13.803 22.899 13.993 22.443 13.979C21.798 13.952 21.449 13.451 21.436 12.501C21.45 11.254 22.04 10.521 22.832 10.319C23.222 10.21 23.584 10.264 23.866 10.305C24.55 10.413 24.939 10.088 24.953 9.519C24.966 8.909 24.429 8.529 23.288 8.569C20.792 8.651 19.517 10.468 19.517 12.623C19.517 14.833 20.953 15.81 22.697 15.498C23.677 15.294 24.174 14.969 24.51 14.671C24.845 14.373 24.993 13.925 24.993 13.531V10.983ZM14.563 3.756C11.637 5.057 9.66301 8.162 9.55601 9.464C9.51601 9.979 10.201 10.06 10.268 9.504C10.885 7.118 12.764 4.867 14.563 3.756ZM24.241 5.98C25.811 5.586 26.684 5.532 26.698 4.813C26.724 3.62 23.368 2.237 20.282 2.495C23.422 2.712 25.302 3.932 25.302 4.773C25.315 5.315 24.845 5.79 24.242 5.979L24.241 5.98ZM25.208 32.284C27.57 31.349 29.838 29.546 31.1 26.861C31.463 26.088 30.416 25.681 30.12 26.603C29.1841 29.0049 27.4495 31.0111 25.208 32.284Z" fill="#001A3A"/>
</svg>
