<svg width="51" height="30" viewBox="0 0 51 30" fill="none" xmlns="http://www.w3.org/2000/svg">
<path d="M23.698 29.7499H5.432C2.432 29.7499 0 27.2129 0 24.0829C0 20.9529 2.432 18.4169 5.432 18.4169C6.284 18.4169 7.037 18.3129 9.235 19.6209L23.698 29.7509V29.7499ZM22.168 27.8739L7.269 17.3719C4.822 15.6469 4.179 12.1799 5.833 9.62693C7.486 7.07393 10.81 6.40293 13.257 8.12793C13.952 8.61793 14.621 8.96593 15.723 11.2969L22.168 27.8739ZM21.852 25.4169L15.035 7.93793C13.915 5.06793 15.145 1.75493 17.779 0.539932C20.414 -0.675068 23.457 0.666932 24.577 3.53793C24.895 4.35293 25.263 5.03293 24.982 7.64393L21.852 25.4169ZM27.003 29.7499H45.269C48.269 29.7499 50.701 27.2129 50.701 24.0829C50.701 20.9529 48.269 18.4169 45.269 18.4169C44.417 18.4169 43.664 18.3129 41.466 19.6209L27.003 29.7499ZM28.532 27.8749L43.431 17.3729C45.878 15.6479 46.521 12.1799 44.867 9.62693C43.214 7.07493 39.89 6.40393 37.443 8.12893C36.748 8.61893 36.079 8.96693 34.977 11.2969L28.532 27.8749ZM35.665 7.93793L28.848 25.4169L26.077 9.67993C25.837 8.16993 26.061 7.87493 26.481 7.43593C26.8682 7.04228 27.3192 6.71702 27.815 6.47393C27.912 6.42693 27.928 6.28993 27.832 6.23793C27.5382 6.08402 27.2185 5.9857 26.889 5.94793C26.4665 5.90991 26.0416 5.90924 25.619 5.94593C25.627 4.78393 25.843 4.24193 26.058 3.70193L26.124 3.53693C27.244 0.666932 30.287 -0.675068 32.922 0.539932C35.556 1.75493 36.785 5.06693 35.665 7.93793Z" fill="#001A3A"/>
</svg>
