<svg width="106" height="106" viewBox="0 0 106 106" fill="none" xmlns="http://www.w3.org/2000/svg">
<path opacity="0.2" fill-rule="evenodd" clip-rule="evenodd" d="M106 48.001C106 74.511 84.51 96.001 58 96.001C31.49 96.001 10 74.511 10 48.001C10 21.491 31.49 0.000976562 58 0.000976562C84.51 0.000976562 106 21.491 106 48.001V48.001ZM50.133 28.155C48.806 27.243 47 28.193 47 29.803V66.199C47 67.809 48.806 68.759 50.133 67.847L76.603 49.649C76.8703 49.4652 77.0889 49.2191 77.2399 48.932C77.3909 48.6449 77.4698 48.3254 77.4698 48.001C77.4698 47.6766 77.3909 47.3571 77.2399 47.0699C77.0889 46.7828 76.8703 46.5368 76.603 46.353L50.133 28.155V28.155Z" fill="#46B1FF"/>
<path d="M50 104.001C76.51 104.001 98 82.511 98 56.001C98 29.491 76.51 8.00098 50 8.00098C23.49 8.00098 2 29.491 2 56.001C2 82.511 23.49 104.001 50 104.001Z" stroke="#425D8D" stroke-width="4" stroke-linecap="round" stroke-linejoin="round"/>
<path d="M39 37.803C39 36.193 40.806 35.243 42.133 36.155L68.603 54.353C68.8703 54.5368 69.0889 54.7828 69.2399 55.07C69.3909 55.3571 69.4698 55.6766 69.4698 56.001C69.4698 56.3254 69.3909 56.6449 69.2399 56.932C69.0889 57.2191 68.8703 57.4652 68.603 57.649L42.133 75.847C40.806 76.759 39 75.809 39 74.199V37.803V37.803Z" stroke="#425D8D" stroke-width="4" stroke-linecap="round" stroke-linejoin="round"/>
</svg>
