<svg width="1120" height="1194" viewBox="0 0 1120 1194" fill="none" xmlns="http://www.w3.org/2000/svg">
<g clip-path="url(#clip0_2_349)">
<path d="M789.393 509.219C761.955 509.219 739.713 489.286 739.713 464.694C739.713 440.101 761.955 420.168 789.393 420.168H834.858" stroke="#7CABFF" stroke-width="8" stroke-linecap="round" stroke-linejoin="round"/>
<path d="M845.483 813.026C825.584 878.837 868.631 946.236 941.627 963.572C1014.62 980.899 1089.94 941.598 1109.84 875.789C1129.74 809.978 1086.69 742.581 1013.69 725.247" stroke="#7CABFF" stroke-width="8" stroke-linecap="round" stroke-linejoin="round"/>
<path d="M837.428 974.689C873.141 1011.31 924.603 1030.45 971.57 1028.57" stroke="#8DCFFF" stroke-width="8" stroke-linecap="round" stroke-linejoin="round"/>
<path d="M986.039 518.287C986.039 546.065 1011.09 568.583 1041.98 568.583C1072.88 568.583 1097.92 546.065 1097.92 518.287C1097.92 490.508 1072.88 467.99 1041.98 467.99H854.609" stroke="#CED6E0" stroke-width="8" stroke-linecap="round" stroke-linejoin="round"/>
<path d="M534.526 628.135C534.526 606.276 554.364 588.556 578.834 588.556C603.305 588.556 623.141 606.276 623.141 628.135C623.141 649.993 603.305 667.713 578.834 667.713H508.409" stroke="#CED6E0" stroke-width="8" stroke-linecap="round" stroke-linejoin="round"/>
<path d="M617.737 991.35C642.465 991.35 662.511 1008.89 662.511 1030.52C662.511 1052.15 642.465 1069.68 617.737 1069.68C593.009 1069.68 572.963 1052.15 572.963 1030.52V954.512" stroke="#62BDFF" stroke-width="8" stroke-linecap="round" stroke-linejoin="round"/>
<path d="M1020.18 414.806C1072.45 414.806 1114.81 376.842 1114.81 330.012C1114.81 283.181 1072.45 245.217 1020.18 245.217H840" stroke="#62BDFF" stroke-width="8" stroke-linecap="round" stroke-linejoin="round"/>
<path fill-rule="evenodd" clip-rule="evenodd" d="M925.556 330.012C925.556 309.76 944.343 293.344 967.518 293.344H1010.63C1033.81 293.344 1052.59 309.76 1052.59 330.012C1052.59 350.263 1033.81 366.679 1010.63 366.679H967.518C944.343 366.679 925.556 350.263 925.556 330.012Z" stroke="#A7DAFF" stroke-width="8" stroke-linecap="round" stroke-linejoin="round"/>
<path d="M212.593 846.104H324.862C384.952 846.104 433.663 889.85 433.663 943.812" stroke="#62BDFF" stroke-width="8" stroke-linecap="round" stroke-linejoin="round"/>
<path d="M5.18518 789.507H229.256C279.804 789.507 303.333 768.229 303.333 723.046" stroke="#CED6E0" stroke-width="8" stroke-linecap="round" stroke-linejoin="round"/>
<path d="M978.286 799.648C1007.89 799.648 1031.89 820.723 1031.89 846.712C1031.89 872.702 1007.89 893.778 978.286 893.778C948.683 893.778 924.684 872.702 924.684 846.712V540.047" stroke="#8DCFFF" stroke-width="8" stroke-linecap="round" stroke-linejoin="round"/>
<path d="M573.083 831.251C573.083 782.981 616.754 743.848 670.625 743.848H842.49" stroke="#7CABFF" stroke-width="8" stroke-linecap="round" stroke-linejoin="round"/>
<path d="M842.593 550.019V590.949C842.593 632.261 804.458 665.752 757.41 665.752H690.926" stroke="#6386C4" stroke-width="8" stroke-linecap="round" stroke-linejoin="round"/>
<path d="M395.856 764.367V723.593C395.856 700.116 416.162 680.449 443.429 675.317" stroke="#8DCFFF" stroke-width="8" stroke-linecap="round" stroke-linejoin="round"/>
<path d="M940.463 1082.85C940.463 1088.24 940.463 1156.14 940.463 1189.42" stroke="#CED6E0" stroke-width="8" stroke-linecap="round" stroke-linejoin="round"/>
<path d="M498.426 739.088C498.426 739.088 498.426 823.281 498.426 893.781" stroke="#CED6E0" stroke-width="8" stroke-linecap="round" stroke-linejoin="round"/>
<path d="M1006.8 615.3C1006.8 618.09 1006.8 653.208 1006.8 670.425" stroke="#6386C3" stroke-width="8" stroke-linecap="round" stroke-linejoin="round"/>
<path d="M775.736 1120.66V886.662C775.736 853.437 745.265 826.498 707.684 826.498C670.102 826.498 639.634 853.437 639.634 886.662V921.251" stroke="#6386C4" stroke-width="8" stroke-linecap="round" stroke-linejoin="round"/>
<path d="M-79.9639 1084.89L-77.6396 1090.69L-75.3154 1084.89H-74.0996V1092H-75.0371V1089.23L-74.9492 1086.24L-77.2832 1092H-78.001L-80.3301 1086.26L-80.2373 1089.23V1092H-81.1748V1084.89H-79.9639ZM-67.0307 1090.14H-70.0092L-70.6781 1092H-71.6449L-68.9301 1084.89H-68.1098L-65.39 1092H-66.352L-67.0307 1090.14ZM-69.726 1089.37H-67.309L-68.5199 1086.05L-69.726 1089.37ZM-61.1873 1088.81H-62.0516V1092H-62.9891V1084.89H-62.0516V1088.03H-61.3191L-58.8338 1084.89H-57.6668L-60.3816 1088.34L-57.4666 1092H-58.6141L-61.1873 1088.81ZM-51.1887 1088.71H-54.2697V1091.23H-50.6906V1092H-55.2072V1084.89H-50.7395V1085.66H-54.2697V1087.95H-51.1887V1088.71ZM-43.1139 1085.66H-45.399V1092H-46.3316V1085.66H-48.6119V1084.89H-43.1139V1085.66ZM-35.1283 1088.81H-35.9926V1092H-36.9301V1084.89H-35.9926V1088.03H-35.2602L-32.7748 1084.89H-31.6078L-34.3227 1088.34L-31.4076 1092H-32.5551L-35.1283 1088.81ZM-25.2225 1090.14H-28.201L-28.8699 1092H-29.8367L-27.1219 1084.89H-26.3016L-23.5818 1092H-24.5438L-25.2225 1090.14ZM-27.9178 1089.37H-25.5008L-26.7117 1086.05L-27.9178 1089.37ZM-15.7609 1092H-16.7033V1088.71H-20.2873V1092H-21.2248V1084.89H-20.2873V1087.95H-16.7033V1084.89H-15.7609V1092ZM-8.68223 1090.14H-11.6607L-12.3297 1092H-13.2965L-10.5816 1084.89H-9.76133L-7.0416 1092H-8.00352L-8.68223 1090.14ZM-11.3775 1089.37H-8.96055L-10.1715 1086.05L-11.3775 1089.37ZM0.779297 1084.89V1092H-0.158203V1085.66H-2.70703L-2.83398 1088.48C-2.88281 1089.42 -2.98047 1090.13 -3.12695 1090.61C-3.27018 1091.08 -3.48177 1091.43 -3.76172 1091.66C-4.04167 1091.88 -4.41602 1091.99 -4.88477 1092H-5.19238V1091.23L-4.99707 1091.22C-4.69434 1091.2 -4.46159 1091.1 -4.29883 1090.93C-4.13607 1090.75 -4.01237 1090.48 -3.92773 1090.1C-3.8431 1089.71 -3.78288 1089.13 -3.74707 1088.34L-3.60059 1084.89H0.779297ZM7.89707 1090.14H4.91856L4.24961 1092H3.28281L5.99766 1084.89H6.81797L9.5377 1092H8.57578L7.89707 1090.14ZM5.20176 1089.37H7.61875L6.40781 1086.05L5.20176 1089.37ZM23.4363 1089.55C23.3973 1090.34 23.202 1090.96 22.8504 1091.41C22.4988 1091.87 22.0284 1092.1 21.4393 1092.1C20.8305 1092.1 20.4399 1091.82 20.2674 1091.28C20.0916 1091.55 19.8898 1091.76 19.6619 1091.9C19.4373 1092.03 19.2046 1092.1 18.9637 1092.1C18.5014 1092.1 18.1515 1091.91 17.9139 1091.53C17.6762 1091.15 17.5883 1090.63 17.6502 1089.96C17.699 1089.43 17.8211 1088.95 18.0164 1088.53C18.215 1088.11 18.4689 1087.77 18.7781 1087.53C19.0906 1087.29 19.4178 1087.17 19.7596 1087.17C20.0232 1087.17 20.2592 1087.21 20.4676 1087.28C20.6759 1087.35 20.9103 1087.48 21.1707 1087.69L20.9168 1090.39C20.8549 1091.15 21.0633 1091.52 21.5418 1091.52C21.9096 1091.52 22.2075 1091.34 22.4353 1090.97C22.6632 1090.61 22.7869 1090.13 22.8064 1089.55C22.8683 1088.28 22.6323 1087.32 22.0984 1086.65C21.5678 1085.99 20.7589 1085.66 19.6717 1085.66C19.0174 1085.66 18.4363 1085.82 17.9285 1086.15C17.4207 1086.47 17.0203 1086.93 16.7273 1087.55C16.4344 1088.16 16.27 1088.87 16.2342 1089.67C16.1951 1090.47 16.2928 1091.17 16.5271 1091.77C16.7615 1092.36 17.118 1092.82 17.5965 1093.13C18.0783 1093.44 18.6593 1093.6 19.3396 1093.6C19.6326 1093.6 19.9256 1093.57 20.2186 1093.49C20.5148 1093.42 20.7605 1093.33 20.9559 1093.22L21.1365 1093.78C20.9347 1093.9 20.6661 1094.01 20.3309 1094.09C19.9988 1094.17 19.6619 1094.21 19.3201 1094.21C18.5063 1094.21 17.8064 1094.03 17.2205 1093.66C16.6346 1093.3 16.1951 1092.77 15.9021 1092.08C15.6124 1091.39 15.4871 1090.59 15.5262 1089.67C15.5652 1088.77 15.7654 1087.97 16.1268 1087.25C16.4881 1086.54 16.978 1085.99 17.5965 1085.6C18.215 1085.21 18.9132 1085.01 19.6912 1085.01C20.5018 1085.01 21.1967 1085.19 21.7762 1085.56C22.3556 1085.92 22.7869 1086.45 23.0701 1087.14C23.3533 1087.82 23.4754 1088.63 23.4363 1089.55ZM18.4266 1089.96C18.381 1090.43 18.4233 1090.78 18.5535 1091.03C18.687 1091.28 18.8969 1091.4 19.1834 1091.4C19.3787 1091.4 19.5659 1091.32 19.7449 1091.15C19.9272 1090.98 20.077 1090.75 20.1941 1090.44L20.199 1090.39L20.4236 1087.94C20.2413 1087.84 20.046 1087.8 19.8377 1087.8C19.4568 1087.8 19.1411 1087.99 18.8904 1088.38C18.643 1088.76 18.4884 1089.29 18.4266 1089.96ZM30.0805 1088.86H27.0971V1092H26.1596V1084.89H30.5639V1085.66H27.0971V1088.09H30.0805V1088.86ZM34.0928 1092H33.1553V1084.89H34.0928V1092ZM42.4605 1091.07C42.2197 1091.41 41.8827 1091.67 41.4498 1091.84C41.0201 1092.01 40.5188 1092.1 39.9459 1092.1C39.3665 1092.1 38.8521 1091.96 38.4029 1091.69C37.9537 1091.42 37.6054 1091.03 37.358 1090.53C37.1139 1090.03 36.9885 1089.45 36.982 1088.79V1088.17C36.982 1087.1 37.2311 1086.27 37.7291 1085.68C38.2304 1085.09 38.9335 1084.79 39.8385 1084.79C40.5807 1084.79 41.178 1084.98 41.6305 1085.36C42.0829 1085.74 42.3596 1086.28 42.4605 1086.98H41.523C41.3473 1086.03 40.7874 1085.56 39.8434 1085.56C39.2151 1085.56 38.7382 1085.79 38.4127 1086.23C38.0904 1086.67 37.9277 1087.31 37.9244 1088.14V1088.72C37.9244 1089.52 38.1067 1090.16 38.4713 1090.63C38.8359 1091.1 39.329 1091.33 39.9508 1091.33C40.3023 1091.33 40.61 1091.29 40.8736 1091.21C41.1373 1091.14 41.3554 1091 41.5279 1090.82V1089.22H39.8824V1088.46H42.4605V1091.07ZM46.6389 1084.89L48.9631 1090.69L51.2873 1084.89H52.5031V1092H51.5656V1089.23L51.6535 1086.24L49.3195 1092H48.6018L46.2727 1086.26L46.3654 1089.23V1092H45.4279V1084.89H46.6389ZM59.5721 1090.14H56.5936L55.9246 1092H54.9578L57.6727 1084.89H58.493L61.2127 1092H60.2508L59.5721 1090.14ZM56.8768 1089.37H59.2937L58.0828 1086.05L56.8768 1089.37ZM67.9936 1092H63.3354V1091.35L65.7963 1088.62C66.1609 1088.2 66.4115 1087.87 66.5482 1087.61C66.6882 1087.35 66.7582 1087.08 66.7582 1086.8C66.7582 1086.43 66.6459 1086.13 66.4213 1085.89C66.1967 1085.65 65.8972 1085.54 65.5229 1085.54C65.0736 1085.54 64.7237 1085.66 64.4731 1085.92C64.2257 1086.17 64.102 1086.53 64.102 1086.99H63.1986C63.1986 1086.33 63.4086 1085.8 63.8285 1085.4C64.2517 1084.99 64.8165 1084.79 65.5229 1084.79C66.1837 1084.79 66.7061 1084.97 67.0902 1085.32C67.4744 1085.66 67.6664 1086.12 67.6664 1086.7C67.6664 1087.4 67.2204 1088.23 66.3285 1089.2L64.4242 1091.26H67.9936V1092ZM76.0488 1092H75.1064V1088.71H71.5225V1092H70.585V1084.89H71.5225V1087.95H75.1064V1084.89H76.0488V1092ZM83.8795 1085.66H81.5943V1092H80.6617V1085.66H78.3814V1084.89H83.8795V1085.66ZM87.5451 1084.89L89.8693 1090.69L92.1936 1084.89H93.4094V1092H92.4719V1089.23L92.5598 1086.24L90.2258 1092H89.508L87.1789 1086.26L87.2717 1089.23V1092H86.3342V1084.89H87.5451ZM97.407 1091.23H100.776V1092H96.4646V1084.89H97.407V1091.23Z" fill="#E4E4E4"/>
</g>
<defs>
<clipPath id="clip0_2_349">
<rect width="1120" height="1194" fill="white"/>
</clipPath>
</defs>
</svg>
